<?xml version="1.0" encoding="UTF-8"?>
<svg version="1.1" xmlns="http://www.w3.org/2000/svg" width="491" height="125">
<path d="M0 0 C19.06749179 11.73558721 35.69268421 28.34180031 42.5 50.1875 C44.54561474 65.7853124 37.13269869 78.03354657 28 90 C18.35373014 102.24407718 3.53731635 115.30063896 -12 119 C-29.35191246 121.03013545 -41.27538061 113.46211662 -54.3515625 103.14453125 C-66.16814079 93.17571906 -76.09021136 79.72936593 -81 65 C-82.50814673 46.40670536 -75.22162245 33.59336482 -63.4375 19.625 C-47.05610384 1.75099371 -23.7802519 -13.4233264 0 0 Z M-38.2734375 44.71875 C-41.48927264 48.96772675 -43.89552815 52.5674636 -44 58 C-41.60307495 66.92938981 -35.25639819 74.32579546 -27.4375 79.0625 C-23.41388578 81.03647826 -20.51371038 81.80601971 -16 81 C-7.67462359 77.92790538 -1.10244161 71.42927281 3.265625 63.78515625 C5.05901964 59.53807166 5.50397767 56.33499446 4 52 C-0.38015367 43.78343588 -7.06394444 36.23219031 -16 33 C-25.79644042 31.52129201 -32.31078836 37.75005718 -38.2734375 44.71875 Z " fill="#0064FF" transform="translate(81,6)"/>
<path d="M0 0 C8.58 0 17.16 0 26 0 C26.33 21.78 26.66 43.56 27 66 C36.23006813 55.11180605 36.23006813 55.11180605 44.41015625 43.47265625 C46.63755126 40.56969968 47.68434135 40.06400047 51.33544922 39.32373047 C55.41609618 39.11228478 59.36429075 39.21076166 63.4375 39.4375 C64.85078374 39.48270305 66.2642066 39.52375755 67.67773438 39.56054688 C71.12140651 39.6591511 74.55980825 39.81408664 78 40 C76.30268581 44.6217968 73.81959094 47.80752619 70.5625 51.4375 C66.2251122 56.38327273 62.00314516 61.39036866 57.9375 66.5625 C57.48511963 67.13347412 57.03273926 67.70444824 56.56665039 68.29272461 C54.13022099 71.40827237 51.95341215 74.56071368 50 78 C54.79429908 83.90704998 59.63279775 89.76835981 64.5625 95.5625 C69.14832862 100.95960036 73.61598733 106.43709317 78 112 C78.67546875 112.84046875 79.3509375 113.6809375 80.046875 114.546875 C80.69140625 115.35640625 81.3359375 116.1659375 82 117 C82.5775 117.721875 83.155 118.44375 83.75 119.1875 C85 121 85 121 85 123 C80.89329714 123.24958923 76.78959349 123.42969478 72.67700195 123.54931641 C71.28266449 123.59922342 69.88884022 123.66718831 68.49633789 123.75439453 C56.97789433 124.45699066 56.97789433 124.45699066 52.17724609 120.9206543 C49.8889456 118.38965527 47.92332039 115.81514235 46 113 C45.1646875 112.01128906 44.329375 111.02257812 43.46875 110.00390625 C42.49421875 108.79541016 42.49421875 108.79541016 41.5 107.5625 C40.7678125 106.65886719 40.035625 105.75523438 39.28125 104.82421875 C38.5284375 103.89222656 37.775625 102.96023437 37 102 C35.33624299 99.95593716 33.66823348 97.91541848 32 95.875 C31.2575 94.96492188 30.515 94.05484375 29.75 93.1171875 C28.86722208 92.04918385 27.97977769 90.97977769 27 90 C26.67 100.89 26.34 111.78 26 123 C17.42 123 8.84 123 0 123 C0 82.41 0 41.82 0 0 Z " fill="#000000" transform="translate(406,1)"/>
<path d="M0 0 C5.86556424 6.34413538 10.15330547 15.02904803 11.6875 23.5 C7.31340199 23.73299846 2.94090109 23.874647 -1.4375 24 C-2.675 24.06703125 -3.9125 24.1340625 -5.1875 24.203125 C-14.25024164 24.39802267 -14.25024164 24.39802267 -17.37792969 21.75390625 C-18.9296875 19.59375 -18.9296875 19.59375 -20.09716797 17.42773438 C-21.56567287 15.09842246 -22.76491663 14.46569603 -25.3125 13.5 C-30.22855763 12.92819269 -34.89871941 13.13346429 -39.6875 14.375 C-44.45782776 18.2366939 -46.80170134 23.29307278 -47.76171875 29.3203125 C-48.01103222 35.49297022 -46.99936039 40.47354081 -43.3125 45.5 C-38.22047725 50.22830684 -34.87224647 50.85732055 -28.07421875 50.77734375 C-24.17830964 50.3860997 -22.16627825 49.14496521 -19.3125 46.5 C-18.88324219 45.46875 -18.45398438 44.4375 -18.01171875 43.375 C-15.3125 40.5 -15.3125 40.5 -12.46118164 40.01416016 C-8.8118736 39.90814327 -5.21036071 39.97878564 -1.5625 40.125 C-0.29277344 40.15207031 0.97695313 40.17914063 2.28515625 40.20703125 C5.42097906 40.2777641 8.55338663 40.37643508 11.6875 40.5 C8.49801112 51.92900182 3.81532433 62.57086782 -6.734375 68.96875 C-18.3001879 74.99699188 -30.88799516 76.42426085 -43.6796875 73.8125 C-55.29938897 69.86245984 -64.27027161 62.45815194 -70.125 51.6875 C-75.38274981 40.28703258 -75.55145035 27.59579525 -71.6875 15.6875 C-67.23694491 4.76194959 -58.70339915 -3.51970958 -48.09375 -8.45703125 C-31.87505589 -14.53904154 -12.98342426 -11.56840479 0 0 Z " fill="#000000" transform="translate(387.3125,50.5)"/>
<path d="M0 0 C5.67666803 5.30492163 9.7847695 11.93974089 12.25 19.3125 C12.28291955 20.97884153 12.28732869 22.64625142 12.25 24.3125 C8.04260571 24.54559664 3.83687362 24.68717326 -0.375 24.8125 C-1.56480469 24.87953125 -2.75460938 24.9465625 -3.98046875 25.015625 C-12.70377116 25.21055913 -12.70377116 25.21055913 -15.78417969 22.56640625 C-17.3359375 20.40625 -17.3359375 20.40625 -18.51708984 18.24023438 C-19.9997115 15.92206 -21.20547469 15.28181352 -23.75 14.3125 C-28.8159624 13.64531353 -34.01905776 13.52880314 -38.6875 15.8125 C-43.52071219 19.75797934 -45.3767694 23.23046171 -46.12890625 29.44140625 C-46.36759167 36.08610043 -46.12468363 42.02912838 -41.75 47.3125 C-38.17352738 50.64231934 -34.5706976 51.57805878 -29.75 51.8125 C-24.65741113 51.5803151 -21.80869683 50.39710959 -17.75 47.3125 C-17.29882812 46.28125 -16.84765625 45.25 -16.3828125 44.1875 C-13.75 41.3125 -13.75 41.3125 -10.99462891 40.82666016 C-7.4793461 40.72076258 -4.01376367 40.79109318 -0.5 40.9375 C0.72203125 40.96457031 1.9440625 40.99164063 3.203125 41.01953125 C6.22052741 41.09025162 9.2343757 41.18890884 12.25 41.3125 C10.92316716 52.73722904 5.24718988 61.66687999 -3.69140625 68.87890625 C-14.53031704 76.21433072 -27.08214677 76.48329625 -39.75 75.3125 C-51.10926249 73.0406475 -60.12280834 65.61605753 -66.75 56.3125 C-73.16497226 43.97479344 -74.51554012 31.64250007 -70.78515625 18.23046875 C-67.00548107 7.57606361 -59.95707653 -0.66545826 -50.0625 -6.0625 C-33.22447048 -13.7755398 -14.30646077 -11.74410959 0 0 Z " fill="#000000" transform="translate(219.75,49.6875)"/>
<path d="M0 0 C8.58 0 17.16 0 26 0 C26 40.59 26 81.18 26 123 C17.42 123 8.84 123 0 123 C0 82.41 0 41.82 0 0 Z " fill="#000000" transform="translate(240,1)"/>
<path d="M0 0 C8.58 0 17.16 0 26 0 C26 27.39 26 54.78 26 83 C17.42 83 8.84 83 0 83 C0 55.61 0 28.22 0 0 Z " fill="#000000" transform="translate(279,41)"/>
<path d="M0 0 C4.49167626 2.12763612 7.06291663 4.41217097 9 9 C10.47894225 15.08773903 10.29304174 19.47618805 7 25 C3.10648776 28.9970631 -0.16103575 31.15160557 -5.75 31.3125 C-10.6322451 31.25622052 -13.25873246 30.29587855 -17 27 C-20.9696771 22.60116862 -22.4253313 19.20958034 -22.34765625 13.1953125 C-21.55692511 8.20215632 -18.69931329 4.25576372 -14.6953125 1.296875 C-9.95372621 -0.98458391 -5.13987503 -0.62681403 0 0 Z " fill="#000000" transform="translate(298,0)"/>
</svg>
