<?xml version="1.0" encoding="UTF-8"?>
<svg version="1.1" xmlns="http://www.w3.org/2000/svg" width="70" height="40">
<path d="M0 0 C23.1 0 46.2 0 70 0 C70 12.54 70 25.08 70 38 C46.9 38 23.8 38 0 38 C0 25.46 0 12.92 0 0 Z " fill="#3B4C59" transform="translate(0,2)"/>
<path d="M0 0 C4.95 0 9.9 0 15 0 C15 12.54 15 25.08 15 38 C5.43 38 -4.14 38 -14 38 C-11.525 35.525 -11.525 35.525 -9 33 C-7.92459968 31.73628073 -6.87849412 30.44654144 -5.875 29.125 C-5.39804687 28.50882813 -4.92109375 27.89265625 -4.4296875 27.2578125 C-0.37890756 20.86067915 0.42128776 16.00174651 0.1875 8.5625 C0.17396484 7.73556641 0.16042969 6.90863281 0.14648438 6.05664062 C0.11146992 4.0374736 0.05767562 2.01864682 0 0 Z " fill="#F3E3A8" transform="translate(55,2)"/>
<path d="M0 0 C3.63 0 7.26 0 11 0 C11 12.54 11 25.08 11 38 C7.37 38 3.74 38 0 38 C0.763125 37.484375 1.52625 36.96875 2.3125 36.4375 C5.61575607 33.44152356 6.48625726 31.14287486 8 27 C7.34 27 6.68 27 6 27 C6.33 26.01 6.66 25.02 7 24 C8.28095666 19.5393637 9.13636877 14.27273753 7 10 C6.773125 10.9075 6.54625 11.815 6.3125 12.75 C2.03011219 27.64659187 2.03011219 27.64659187 -3 31 C-2.731875 30.360625 -2.46375 29.72125 -2.1875 29.0625 C1.74322722 19.05495353 1.74322722 19.05495353 3.25 8.5 C3.27578125 7.7471875 3.3015625 6.994375 3.328125 6.21875 C3.10237467 3.47468351 3.10237467 3.47468351 0 0 Z " fill="#FAF9F3" transform="translate(59,2)"/>
<path d="M0 0 C2.69629131 0.36436369 4.5742765 0.68767883 6.7890625 2.3125 C9.11142945 5.54883071 8.4410908 9.19417806 8 13 C7.16633617 16.72274021 6.1426924 20.36106884 5 24 C4.01 24 3.02 24 2 24 C1.67 23.34 1.34 22.68 1 22 C0.731875 22.56847656 0.46375 23.13695313 0.1875 23.72265625 C-2.92071542 29.84706755 -6.58090141 33.81801573 -12 38 C-12.66 37.67 -13.32 37.34 -14 37 C-13.49210937 36.63390625 -12.98421875 36.2678125 -12.4609375 35.890625 C-6.24210707 30.99941005 -2.22868688 25.65182497 0 18 C0.64788709 12.0051389 0.36033099 6.00551654 0 0 Z " fill="#E0DCC9" transform="translate(55,2)"/>
<path d="M0 0 C1.5 1 1.5 1 3 3 C3.96605768 9.88316099 1.94430171 15.30020627 -2 21 C-2.99 21.33 -3.98 21.66 -5 22 C-5.34421632 17.41044904 -4.49561647 14.26234281 -2.80078125 10.1015625 C-1.54436284 6.80423028 -0.79724365 3.43428036 0 0 Z " fill="#C6B05E" transform="translate(65,11)"/>
<path d="M0 0 C4 2 4 2 6 4 C6.83002176 9.88338954 5.63697206 15.37290856 4 21 C3.01 20.67 2.02 20.34 1 20 C0.67 13.4 0.34 6.8 0 0 Z " fill="#C3AC58" transform="translate(57,2)"/>
<path d="M0 0 C2 2 2 2 2.5 5.0625 C2.665 6.031875 2.83 7.00125 3 8 C3.66 8.33 4.32 8.66 5 9 C5 9.66 5 10.32 5 11 C0.05 11 -4.9 11 -10 11 C-8.35 9.35 -6.7 7.7 -5 6 C-4.04399957 4.91181185 -3.10188312 3.81088497 -2.1875 2.6875 C-1.1046875 1.3571875 -1.1046875 1.3571875 0 0 Z " fill="#D4BF6E" transform="translate(53,29)"/>
<path d="M0 0 C2.4375 0.1875 2.4375 0.1875 3.4375 1.1875 C3.625 4.125 3.625 4.125 3.4375 7.1875 C2.7775 7.8475 2.1175 8.5075 1.4375 9.1875 C-3.11805556 8.63194444 -3.11805556 8.63194444 -4.5625 7.1875 C-4.75 4.75 -4.75 4.75 -4.5625 2.1875 C-2.5625 0.1875 -2.5625 0.1875 0 0 Z " fill="#C8BB7A" transform="translate(43.5625,15.8125)"/>
<path d="M0 0 C0.99 0.33 1.98 0.66 3 1 C3 3.64 3 6.28 3 9 C2.01 9 1.02 9 0 9 C0 7.68 0 6.36 0 5 C-0.99 5 -1.98 5 -3 5 C-3 6.65 -3 8.3 -3 10 C-4.32 9.34 -5.64 8.68 -7 8 C-6.39816251 5.97954558 -5.72693904 3.97888961 -5 2 C-4.34 1.67 -3.68 1.34 -3 1 C-3 1.66 -3 2.32 -3 3 C-2.01 3 -1.02 3 0 3 C0 2.01 0 1.02 0 0 Z " fill="#9E9457" transform="translate(16,16)"/>
<path d="M0 0 C3 1 3 1 4 3 C4.66 2.01 5.32 1.02 6 0 C6.99 0 7.98 0 9 0 C9 2.97 9 5.94 9 9 C8.34 9 7.68 9 7 9 C6.67 7.68 6.34 6.36 6 5 C5.01 5.33 4.02 5.66 3 6 C2.67 6.99 2.34 7.98 2 9 C1.34 9 0.68 9 0 9 C0 6.03 0 3.06 0 0 Z " fill="#B9AE71" transform="translate(29,16)"/>
<path d="M0 0 C0.66 0 1.32 0 2 0 C2 2.31 2 4.62 2 7 C2.99 7 3.98 7 5 7 C5 4.69 5 2.38 5 0 C5.66 0 6.32 0 7 0 C7.09765625 6.15234375 7.09765625 6.15234375 7 8 C6 9 6 9 3.5 9.125 C1 9 1 9 0 8 C-0.14115161 5.32941149 -0.04247107 2.67567762 0 0 Z " fill="#C4B97D" transform="translate(20,16)"/>
<path d="M0 0 C0.66 0 1.32 0 2 0 C2.33 1.98 2.66 3.96 3 6 C0.03 6 -2.94 6 -6 6 C-4 4 -2 2 0 0 Z " fill="#AB9337" transform="translate(49,34)"/>
<path d="M0 0 C0.66 0 1.32 0 2 0 C1.38983051 5.49152542 1.38983051 5.49152542 -0.4375 7.875 C-2 9 -2 9 -4 9 C-3.35494404 5.51669784 -2.01782732 2.90567134 0 0 Z " fill="#CEB96A" transform="translate(65,29)"/>
<path d="M0 0 C0.99 0.33 1.98 0.66 3 1 C3 2.65 3 4.3 3 6 C1.68 6 0.36 6 -1 6 C-1.042721 4.33388095 -1.04063832 2.66617115 -1 1 C-0.67 0.67 -0.34 0.34 0 0 Z " fill="#3B4B55" transform="translate(42,17)"/>
</svg>
