<?xml version="1.0" encoding="UTF-8"?>
<svg version="1.1" xmlns="http://www.w3.org/2000/svg" width="463" height="150">
<path d="M0 0 C1.60219963 -0.00619965 3.20439089 -0.01501818 4.80656332 -0.02622539 C9.20324618 -0.04932707 13.59913128 -0.03502321 17.99579775 -0.01451623 C22.73957322 0.00111387 27.48322821 -0.01780672 32.22698975 -0.03231812 C41.51731299 -0.05515091 50.80733547 -0.04566266 60.09765274 -0.02481725 C67.64703765 -0.00853807 75.19634045 -0.00433251 82.74574089 -0.00878334 C83.81990028 -0.00941402 84.89405968 -0.01004469 86.00076936 -0.01069448 C88.18284025 -0.01204052 90.36491113 -0.01342009 92.54698198 -0.01483283 C113.01074102 -0.02677136 133.4743351 -0.00269853 153.93805658 0.03418525 C171.50176717 0.06508282 189.06528787 0.06744728 206.62901306 0.04838562 C227.02070491 0.02628033 247.41229029 0.02012278 267.80398744 0.04070824 C269.97775835 0.04287121 272.15152928 0.0450203 274.32530022 0.04715538 C275.39486581 0.04822175 276.46443141 0.04928811 277.56640809 0.05038679 C285.10834872 0.05685982 292.65023462 0.05208656 300.1921711 0.04313087 C309.38089399 0.03260219 318.56939409 0.04007404 327.75807578 0.07058666 C332.44747365 0.08572902 337.13651963 0.09286113 341.82592773 0.07839584 C346.11735261 0.06539663 350.40807979 0.07542225 354.69942384 0.10395458 C356.25313605 0.1102428 357.80690982 0.10807856 359.36059297 0.09668414 C372.42830173 0.00867632 372.42830173 0.00867632 376.3328619 3.16588116 C378.14762558 5.3660219 379.80656053 7.40936498 381.22251892 9.88017273 C381.67747742 10.65804138 382.13243591 11.43591003 382.60118103 12.23735046 C383.07305847 13.06823181 383.54493591 13.89911316 384.03111267 14.75517273 C385.08432244 16.55942157 386.13905998 18.36277929 387.19517517 20.16532898 C387.73432556 21.09103699 388.27347595 22.016745 388.82896423 22.97050476 C391.45016742 27.4221789 394.17570256 31.80741856 396.90611267 36.19267273 C397.43696472 37.047724 397.96781677 37.90277527 398.51475525 38.78373718 C399.60088154 40.5330169 400.68755645 42.28195608 401.77476501 44.03056335 C404.75988292 48.83222317 407.73968773 53.63716927 410.71861267 58.44267273 C411.27991882 59.34622498 411.84122498 60.24977722 412.41954041 61.18070984 C413.19406555 62.42993225 413.19406555 62.42993225 413.98423767 63.70439148 C414.66921326 64.80786926 414.66921326 64.80786926 415.36802673 65.93363953 C417.94335814 70.19596153 418.03785382 73.84128223 417.46861267 78.75517273 C414.9613001 83.87881146 410.71952134 87.87285967 406.88658142 92.05595398 C404.53166638 94.68478482 402.30438993 97.37960067 400.09361267 100.13017273 C396.41224578 104.68377985 392.54086794 108.99099789 388.55503845 113.2742157 C385.56448626 116.50693477 382.73089582 119.82204939 379.96861267 123.25517273 C376.28761415 127.82673541 372.4236277 132.16803202 368.42930603 136.46366882 C365.17465172 139.96442503 362.04515947 143.54472981 359.00376892 147.23173523 C355.38084474 150.8270035 351.96644528 151.00593956 346.9933176 151.00964832 C346.34186471 151.0128548 345.69041182 151.01606128 345.01921794 151.01936492 C342.82709488 151.0276941 340.63524297 151.02173057 338.44311523 151.01586914 C336.8593013 151.0188885 335.27548882 151.02277689 333.69167894 151.02746171 C329.33214006 151.03777827 324.97268308 151.03555062 320.61313736 151.03128111 C315.91435419 151.02882052 311.21559108 151.03781973 306.51681519 151.0453186 C297.30872814 151.05808608 288.10067022 151.05985676 278.89257581 151.05751834 C271.41034912 151.05573736 263.92813131 151.05748009 256.44590569 151.06174278 C255.38215254 151.06233797 254.3183994 151.06293316 253.22241132 151.06354639 C251.06159811 151.0647581 248.9007849 151.06597223 246.73997169 151.06718876 C226.46326054 151.07807213 206.18656602 151.075898 185.90985393 151.06980392 C167.34806765 151.06463367 148.78633384 151.07589164 130.22455794 151.09490214 C111.17804318 151.11425998 92.13155326 151.12254017 73.08502859 151.11877888 C62.38674693 151.11686376 51.68850994 151.11938462 40.99023628 151.13349342 C31.88308943 151.14538203 22.77601474 151.1468405 13.66886694 151.13470326 C9.02018611 151.12879689 4.37163742 151.12776347 -0.27703476 151.13970566 C-4.53011046 151.15050484 -8.78294273 151.14753273 -13.03600676 151.13344397 C-14.57701562 151.13078051 -16.11804319 151.13321491 -17.65903377 151.14117984 C-19.74973579 151.15123848 -21.83958385 151.14290566 -23.93025112 151.12990284 C-25.09268508 151.12995786 -26.25511905 151.13001287 -27.45277828 151.13006955 C-31.72151572 150.61024515 -34.32591808 148.97012626 -37.32147217 145.95100403 C-43.12629498 135.4160409 -37.105508 114.16310431 -35.79310608 102.88798523 C-35.50836836 100.39754925 -35.22410024 97.90705954 -34.9402771 95.41651917 C-34.34644255 90.22340305 -33.74640359 85.03105141 -33.14198303 79.8391571 C-32.52360846 74.52334138 -31.9131766 69.20673717 -31.31190491 63.88896179 C-30.58170274 57.43210688 -29.84198049 50.97642074 -29.09438515 44.52155685 C-28.8120063 42.07317852 -28.53254756 39.62446149 -28.2561245 37.17540359 C-27.8685476 33.75307862 -27.46852668 30.33242537 -27.06532288 26.91191101 C-26.9545491 25.91120071 -26.84377533 24.91049042 -26.72964478 23.87945557 C-24.75230961 7.47841563 -24.75230961 7.47841563 -17.97542506 1.99436522 C-12.508072 -0.77772898 -5.99851824 -0.05891831 0 0 Z " fill="#01C0C9" transform="translate(38.53138732910156,-0.7551727294921875)"/>
<path d="M0 0 C6.07571289 3.43834556 9.17274177 8.50196343 11.7578125 14.83984375 C14.90984922 26.55349373 12.84660808 38.99398278 7.3046875 49.5859375 C2.55551672 57.39741512 -3.82551819 61.96331284 -12.375 65.0625 C-15.16317731 65.3421402 -17.66523325 65.48497935 -20.4375 65.4375 C-21.11876953 65.44910156 -21.80003906 65.46070312 -22.50195312 65.47265625 C-27.18429634 65.44566868 -30.36167626 64.42917141 -34.375 62.0625 C-36.01153302 63.69903302 -35.83293638 65.72071159 -36.12890625 67.97265625 C-36.26103516 68.96201172 -36.39316406 69.95136719 -36.52929688 70.97070312 C-36.66400391 72.01162109 -36.79871094 73.05253906 -36.9375 74.125 C-37.07607422 75.16978516 -37.21464844 76.21457031 -37.35742188 77.29101562 C-37.70038961 79.88101333 -38.03817434 82.47169637 -38.375 85.0625 C-44.315 85.0625 -50.255 85.0625 -56.375 85.0625 C-53.98796879 56.61704476 -50.21914094 28.34147295 -46.375 0.0625 C-40.765 0.0625 -35.155 0.0625 -29.375 0.0625 C-29.375 1.3825 -29.375 2.7025 -29.375 4.0625 C-28.64796875 3.629375 -27.9209375 3.19625 -27.171875 2.75 C-17.92827139 -2.36953431 -9.99909857 -4.28105118 0 0 Z " fill="#FAFEFE" transform="translate(90.375,41.9375)"/>
<path d="M0 0 C3.08400361 1.70466022 4.76358794 3.26647566 6.7265625 6.2109375 C9.34745312 5.19117279 11.90984897 4.12428344 14.453125 2.921875 C22.52633391 -0.79919973 29.47830435 -2.53848188 38.1015625 0.3359375 C42.17322745 3.24426961 45.11334329 6.37127988 46.7265625 11.2109375 C47.23241555 17.84108006 46.33117354 24.37985999 45.4140625 30.93359375 C45.28088623 31.91968124 45.14770996 32.90576874 45.01049805 33.92173767 C44.58809906 37.03976042 44.15747104 40.15658058 43.7265625 43.2734375 C43.43695324 45.40031625 43.14788538 47.52726879 42.859375 49.65429688 C42.15469361 54.84071788 41.442635 60.02607747 40.7265625 65.2109375 C34.7865625 65.2109375 28.8465625 65.2109375 22.7265625 65.2109375 C23.2248287 55.44491992 24.21316902 45.90777901 25.71020508 36.24169922 C27.14043152 26.74667317 27.14043152 26.74667317 26.7265625 17.2109375 C25.43968542 15.36928532 25.43968542 15.36928532 23.7265625 14.2109375 C21.60306296 13.95217791 21.60306296 13.95217791 19.3515625 14.3359375 C18.60132813 14.42101563 17.85109375 14.50609375 17.078125 14.59375 C14.04916096 15.38872727 12.15924334 16.20222642 9.7265625 18.2109375 C8.91582152 20.80404677 8.48026286 22.92341719 8.1640625 25.5859375 C8.05602295 26.34310059 7.9479834 27.10026367 7.83666992 27.88037109 C7.59102607 29.6252425 7.35626867 31.37166628 7.12988281 33.11914062 C6.66274138 36.70018123 6.16042351 40.27555077 5.65625 43.8515625 C4.65569161 50.96820633 3.68626923 58.08864696 2.7265625 65.2109375 C-3.2134375 65.2109375 -9.1534375 65.2109375 -15.2734375 65.2109375 C-14.80269893 56.7376432 -13.92954485 48.47801836 -12.7109375 40.0859375 C-9.97791595 27.3199559 -9.97791595 27.3199559 -12.5234375 15.40234375 C-14.80166138 13.85132079 -15.94167781 13.97565208 -18.6484375 14.3359375 C-19.39867187 14.42101563 -20.14890625 14.50609375 -20.921875 14.59375 C-23.95131763 15.38885288 -25.79535545 16.25492122 -28.2734375 18.2109375 C-29.05737159 20.8609233 -29.49138422 23.03025394 -29.78515625 25.73828125 C-29.88431839 26.4824379 -29.98348053 27.22659454 -30.08564758 27.99330139 C-30.39863371 30.37618156 -30.68050765 32.76152853 -30.9609375 35.1484375 C-31.15999382 36.7196705 -31.36114522 38.29063959 -31.56445312 39.86132812 C-31.86157714 42.16148253 -32.15685426 44.46170741 -32.44284058 46.76327515 C-33.21368653 52.94539354 -34.195689 59.07416867 -35.2734375 65.2109375 C-41.2134375 65.2109375 -47.1534375 65.2109375 -53.2734375 65.2109375 C-52.567564 57.94160583 -51.7644437 50.68937976 -50.8984375 43.4375 C-50.70435303 41.80825089 -50.70435303 41.80825089 -50.50634766 40.14608765 C-50.23458356 37.86864958 -49.96227792 35.59127608 -49.68945312 33.31396484 C-49.27218835 29.82549417 -48.85871377 26.3365866 -48.4453125 22.84765625 C-48.17992014 20.62757634 -47.9143031 18.40752328 -47.6484375 16.1875 C-47.464021 14.62499008 -47.464021 14.62499008 -47.27587891 13.03091431 C-47.15905762 12.06245575 -47.04223633 11.09399719 -46.921875 10.09619141 C-46.82052246 9.24699127 -46.71916992 8.39779114 -46.61474609 7.52285767 C-46.2734375 5.2109375 -46.2734375 5.2109375 -45.2734375 1.2109375 C-39.6634375 1.2109375 -34.0534375 1.2109375 -28.2734375 1.2109375 C-27.9434375 2.5309375 -27.6134375 3.8509375 -27.2734375 5.2109375 C-26.58636719 4.86160156 -25.89929688 4.51226562 -25.19140625 4.15234375 C-24.29035156 3.69730469 -23.38929688 3.24226563 -22.4609375 2.7734375 C-21.56761719 2.32097656 -20.67429687 1.86851563 -19.75390625 1.40234375 C-13.74468226 -1.48397644 -6.38519546 -2.2161675 0 0 Z " fill="#FAFDFE" transform="translate(292.2734375,40.7890625)"/>
<path d="M0 0 C4.57264582 3.87680841 7.82852989 8.06151723 9 14 C9.68168009 24.51352825 8.27393121 34.90195977 7 45.3125 C6.80659916 46.93937095 6.61388642 48.56632385 6.421875 50.19335938 C5.95707856 54.13010511 5.47829058 58.06477881 5 62 C-0.94 62 -6.88 62 -13 62 C-13 60.35 -13 58.7 -13 57 C-13.62648437 57.34933594 -14.25296875 57.69867188 -14.8984375 58.05859375 C-15.71570313 58.51363281 -16.53296875 58.96867187 -17.375 59.4375 C-18.18710938 59.88996094 -18.99921875 60.34242187 -19.8359375 60.80859375 C-25.88889874 64.14100021 -33.20377139 63.82637947 -40 63 C-45.30479902 61.1471644 -48.92379606 57.67582999 -52 53 C-53.8310096 47.5069712 -54.07669636 41.16706296 -52.19921875 35.64453125 C-47.95615688 28.10617047 -40.53551566 24.15196714 -32.53271484 21.58666992 C-28.01605026 20.54044426 -23.54831544 20.68736305 -18.9375 20.8125 C-17.97650391 20.82603516 -17.01550781 20.83957031 -16.02539062 20.85351562 C-13.68298248 20.88847694 -11.34180844 20.93753896 -9 21 C-10.59665944 16.27102036 -10.59665944 16.27102036 -13.71484375 12.5859375 C-16.99637646 11.74451886 -20.19619429 11.61867384 -23.5625 11.625 C-24.26906738 11.62371094 -24.97563477 11.62242188 -25.70361328 11.62109375 C-31.25516052 11.73194834 -35.84533035 12.89947907 -40.9609375 15.125 C-43 16 -43 16 -45 16 C-44.91213297 14.26992849 -44.80394326 12.54088335 -44.6875 10.8125 C-44.62949219 9.84957031 -44.57148437 8.88664062 -44.51171875 7.89453125 C-43.92113904 4.55392388 -43.10239093 2.66333254 -41 0 C-30.19380323 -5.967346 -10.33668011 -7.50872045 0 0 Z " fill="#F9FDFD" transform="translate(160,44)"/>
<path d="M0 0 C6.00739804 6.57953118 8.7720174 14.06804197 8.75 22.875 C8.75386719 24.421875 8.75386719 24.421875 8.7578125 26 C8.625 28.875 8.625 28.875 7.625 32.875 C-6.895 32.875 -21.415 32.875 -36.375 32.875 C-33.2417096 40.40651921 -33.2417096 40.40651921 -27.0390625 44 C-19.5310024 46.46599042 -11.75827297 45.12752396 -4.375 42.875 C-2.065 42.215 0.245 41.555 2.625 40.875 C2.295 45.825 1.965 50.775 1.625 55.875 C-10.17880289 61.25614543 -22.28621394 63.14249218 -35.1484375 59.93359375 C-45.85265969 55.63303093 -50.66483834 49.74936408 -55.4921875 39.50390625 C-58.61748778 30.19714923 -56.50555913 19.51608068 -52.375 10.875 C-47.53729483 2.54696112 -40.85139394 -1.8080641 -32.125 -5.5 C-20.32822027 -7.46612995 -10.18517743 -6.41288949 0 0 Z " fill="#F9FDFD" transform="translate(401.375,46.125)"/>
<path d="M0 0 C6.6 0 13.2 0 20 0 C20.55429688 2.52914062 21.10859375 5.05828125 21.6796875 7.6640625 C22.22171951 10.1266363 22.76485945 12.5889633 23.30810547 15.05126953 C23.68361295 16.75609289 24.05797712 18.46116851 24.43115234 20.16650391 C24.96928728 22.62470431 25.51159502 25.08195323 26.0546875 27.5390625 C26.21935516 28.29555084 26.38402283 29.05203918 26.55368042 29.83145142 C27.47655546 33.98569596 28.57190011 37.98242715 30 42 C30.39791748 41.08299316 30.79583496 40.16598633 31.20581055 39.22119141 C32.70336611 35.77206623 34.20456446 32.32453614 35.70678711 28.87744141 C36.35261628 27.39414045 36.99749767 25.91042642 37.64135742 24.42626953 C41.22403089 16.16969649 44.87202466 8.00337858 49 0 C55.27 0 61.54 0 68 0 C66.75955971 3.72132086 65.73789409 6.77358993 64.01977539 10.17163086 C63.44204628 11.32208138 63.44204628 11.32208138 62.85264587 12.49577332 C62.4384993 13.31056656 62.02435272 14.1253598 61.59765625 14.96484375 C61.16381119 15.82696976 60.72996613 16.68909576 60.28297424 17.5773468 C59.35747882 19.41596413 58.43028208 21.2537259 57.50152588 23.09069824 C55.09496519 27.85155856 52.70146344 32.61896587 50.30859375 37.38671875 C49.84122803 38.31751251 49.3738623 39.24830627 48.89233398 40.20730591 C44.53810427 48.89322011 40.33114542 57.64308561 36.17578125 66.42578125 C33.22047638 72.66999115 30.11705243 78.83516298 27 85 C20.4 85 13.8 85 7 85 C8.77923761 79.66228716 10.95841158 75.06352997 13.69726562 70.2109375 C15.93975756 65.97770947 16.23994444 63.59017893 15 59 C14.74863281 57.88367188 14.49726563 56.76734375 14.23828125 55.6171875 C12.35630415 48.00987078 10.28870253 40.49546482 8 33 C4.67719223 22.10950276 1.61328564 11.2929995 0 0 Z " fill="#FBFEFE" transform="translate(174,42)"/>
<path d="M0 0 C3.67112629 2.09778645 5.49748826 4.0973721 7 8 C7.76074991 16.17363859 8.52886405 25.32490804 3 32 C-1.22835476 36.27150124 -4.37088064 38.14725791 -10.375 38.1875 C-11.33148438 38.20167969 -12.28796875 38.21585938 -13.2734375 38.23046875 C-16.03010017 37.99745572 -17.64947395 37.40920164 -20 36 C-19.73022772 30.66134847 -19.3842057 25.33155827 -19 20 C-18.92724854 18.87948242 -18.92724854 18.87948242 -18.85302734 17.73632812 C-18.7030194 15.57049912 -18.51326772 13.41164942 -18.3125 11.25 C-18.20550781 9.95578125 -18.09851562 8.6615625 -17.98828125 7.328125 C-17 4 -17 4 -14.265625 1.578125 C-9.41043212 -0.76816438 -5.28053624 -0.80495979 0 0 Z " fill="#02C0C9" transform="translate(77,55)"/>
<path d="M0 0 C0.74958984 0.00451172 1.49917969 0.00902344 2.27148438 0.01367188 C4.11852383 0.02543646 5.96552213 0.04337135 7.8125 0.0625 C7.8125 3.3625 7.8125 6.6625 7.8125 10.0625 C1.81482781 13.45575504 -4.09316127 16.76076169 -11.1875 16.0625 C-14.25 14.5 -14.25 14.5 -16.1875 12.0625 C-16.8125 9.125 -16.8125 9.125 -16.1875 6.0625 C-11.30635742 0.12597524 -7.29286297 -0.08280106 0 0 Z " fill="#05C1CA" transform="translate(141.1875,77.9375)"/>
<path d="M0 0 C0.94746094 -0.00515625 1.89492188 -0.0103125 2.87109375 -0.015625 C5.65179236 0.2588126 7.24201004 0.72000662 9.5625 2.25 C11.5625 5.25 11.5625 5.25 11.5625 13.25 C2.6525 13.25 -6.2575 13.25 -15.4375 13.25 C-12.79493505 5.32230515 -8.77664852 -0.04763446 0 0 Z " fill="#07C1CA" transform="translate(379.4375,54.75)"/>
</svg>
