<?xml version="1.0" encoding="UTF-8"?>
<svg version="1.1" xmlns="http://www.w3.org/2000/svg" width="39" height="51">
<path d="M0 0 C3.96 0 7.92 0 12 0 C12.06058594 1.69769531 12.12117187 3.39539063 12.18359375 5.14453125 C12.26799875 7.36719626 12.35264677 9.58985205 12.4375 11.8125 C12.47681641 12.93205078 12.51613281 14.05160156 12.55664062 15.20507812 C12.61948242 16.81479492 12.61948242 16.81479492 12.68359375 18.45703125 C12.72025146 19.44678955 12.75690918 20.43654785 12.79467773 21.45629883 C12.90790331 24.1218351 12.90790331 24.1218351 14 27 C15.98 27.33 17.96 27.66 20 28 C20.66 24.37 21.32 20.74 22 17 C25.96 17 29.92 17 34 17 C34.44382247 29.13114754 34.44382247 29.13114754 31 34 C25.34432587 39.10390105 21.68418362 39.28903821 14.20703125 39.21484375 C8.92396225 38.86092317 6.22936915 37.32904773 2.6875 33.5 C-0.05175695 29.44184155 -0.11932861 26.37162317 -0.09765625 21.58203125 C-0.09443359 20.32841797 -0.09121094 19.07480469 -0.08789062 17.78320312 C-0.07951172 16.47287109 -0.07113281 15.16253906 -0.0625 13.8125 C-0.05748317 12.47721519 -0.05292059 11.14192859 -0.04882812 9.80664062 C-0.03702695 6.53771527 -0.02056297 3.26888009 0 0 Z " fill="#1E3E78" transform="translate(3,2)"/>
<path d="M0 0 C0.99 0 1.98 0 3 0 C3.37125 0.928125 3.7425 1.85625 4.125 2.8125 C6.30942959 6.5260303 8.06718759 7.42687504 12 9 C12 11.31 12 13.62 12 16 C8.04 16 4.08 16 0 16 C0 10.72 0 5.44 0 0 Z " fill="#1E3D79" transform="translate(25,2)"/>
<path d="M0 0 C2.64 0 5.28 0 8 0 C8 2.31 8 4.62 8 7 C5.03 6.505 5.03 6.505 2 6 C1.34 4.02 0.68 2.04 0 0 Z " fill="#EF7F19" transform="translate(29,2)"/>
<path d="M0 0 C3 0 6 0 9 0 C9 1.98 9 3.96 9 6 C8.37351562 5.9278125 7.74703125 5.855625 7.1015625 5.78125 C6.28429688 5.6884375 5.46703125 5.595625 4.625 5.5 C3.81289063 5.4071875 3.00078125 5.314375 2.1640625 5.21875 C0.03087175 4.96647649 0.03087175 4.96647649 -2 5 C-1.34 3.35 -0.68 1.7 0 0 Z " fill="#1E3D7E" transform="translate(22,45)"/>
<path d="M0 0 C0 0.66 0 1.32 0 2 C-0.66 2 -1.32 2 -2 2 C-2.33 3.32 -2.66 4.64 -3 6 C-4.32 6 -5.64 6 -7 6 C-7 4.35 -7 2.7 -7 1 C-2.25 0 -2.25 0 0 0 Z " fill="#1E3B74" transform="translate(39,44)"/>
<path d="M0 0 C1.65 0 3.3 0 5 0 C4.67 1.65 4.34 3.3 4 5 C2.68 5 1.36 5 0 5 C0 3.35 0 1.7 0 0 Z " fill="#1D3E78" transform="translate(3,45)"/>
<path d="M0 0 C1.32 0 2.64 0 4 0 C4 1.65 4 3.3 4 5 C2.35 4.67 0.7 4.34 -1 4 C-0.67 2.68 -0.34 1.36 0 0 Z " fill="#1F3D77" transform="translate(15,45)"/>
<path d="M0 0 C1.32 0 2.64 0 4 0 C4 1.65 4 3.3 4 5 C2.68 5 1.36 5 0 5 C0 3.35 0 1.7 0 0 Z " fill="#1E3E78" transform="translate(9,45)"/>
</svg>
