<?xml version="1.0" encoding="UTF-8"?>
<svg version="1.1" xmlns="http://www.w3.org/2000/svg" width="1475" height="547">
<path d="M0 0 C1.22783203 1.12148437 1.22783203 1.12148437 2.48046875 2.265625 C4.09214463 3.73125076 5.71942582 5.17993549 7.36328125 6.609375 C18.92287782 16.71249928 28.74875857 28.23928288 37.9375 40.5 C38.36804688 41.07363281 38.79859375 41.64726563 39.2421875 42.23828125 C45.74975315 50.97419513 51.60749428 60.00077319 56.9375 69.5 C57.39914551 70.32081055 57.86079102 71.14162109 58.33642578 71.98730469 C81.03294041 112.79759989 92.15646459 157.55767822 92.1875 204.125 C92.18851212 205.49143143 92.18851212 205.49143143 92.18954468 206.88546753 C92.17226463 221.60887277 91.50797131 235.97244849 88.9375 250.5 C88.76589355 251.48629395 88.59428711 252.47258789 88.41748047 253.48876953 C81.37732356 292.74126187 66.16802756 330.02868315 42.9375 362.5 C42.4425 363.19706055 41.9475 363.89412109 41.4375 364.61230469 C35.33566765 373.14930841 28.83929211 381.08701772 21.6015625 388.68359375 C19.48094582 390.92547736 17.47421952 393.19440909 15.5 395.5625 C7.06694485 405.25847645 -3.07952287 413.42189504 -13.29296875 421.15429688 C-15.02021609 422.4678437 -16.72903454 423.80278952 -18.4375 425.140625 C-74.32083587 468.2111055 -147.9330177 483.91537757 -217.14453125 475.4765625 C-267.41229238 468.71446011 -315.09122059 447.93717268 -354.0625 415.5 C-354.8349707 414.86288086 -354.8349707 414.86288086 -355.62304688 414.21289062 C-368.68331019 403.40807535 -380.57819754 391.84530382 -391.0625 378.5 C-391.9906338 377.38173817 -392.92180038 376.26598878 -393.85546875 375.15234375 C-401.88287132 365.50001941 -408.66369106 355.29224441 -415.0625 344.5 C-415.53574707 343.70464844 -416.00899414 342.90929687 -416.49658203 342.08984375 C-438.15980573 305.27358793 -452.05603419 261.01196056 -452.265625 218.0859375 C-452.27263931 217.12140656 -452.27965363 216.15687561 -452.28688049 215.16311646 C-452.30429207 212.06702964 -452.3107328 208.97113398 -452.3125 205.875 C-452.31317474 204.81821045 -452.31384949 203.7614209 -452.31454468 202.67260742 C-452.29902397 187.39790972 -451.96803716 172.54076116 -449.0625 157.5 C-448.89089355 156.56510742 -448.71928711 155.63021484 -448.54248047 154.66699219 C-443.4366383 127.33545099 -434.10924821 101.03805908 -421.0625 76.5 C-420.50224121 75.42951416 -420.50224121 75.42951416 -419.93066406 74.33740234 C-411.60811417 58.49961069 -401.67228257 44.11617116 -390.0625 30.5 C-389.13995935 29.39248122 -388.21812327 28.28437528 -387.296875 27.17578125 C-377.19556699 15.10377217 -366.44258556 4.24848983 -354.0625 -5.5 C-352.91985992 -6.44157034 -351.77934851 -7.385728 -350.640625 -8.33203125 C-275.04044584 -70.75707545 -168.43964179 -83.06660592 0 0 Z " fill="#7000FE" transform="translate(452.0625,68.5)"/>
<path d="M0 0 C1.22783203 1.12148437 1.22783203 1.12148437 2.48046875 2.265625 C4.09214463 3.73125076 5.71942582 5.17993549 7.36328125 6.609375 C18.92287782 16.71249928 28.74875857 28.23928288 37.9375 40.5 C38.36804688 41.07363281 38.79859375 41.64726563 39.2421875 42.23828125 C45.74975315 50.97419513 51.60749428 60.00077319 56.9375 69.5 C57.39914551 70.32081055 57.86079102 71.14162109 58.33642578 71.98730469 C81.03294041 112.79759989 92.15646459 157.55767822 92.1875 204.125 C92.18851212 205.49143143 92.18851212 205.49143143 92.18954468 206.88546753 C92.17226463 221.60887277 91.50797131 235.97244849 88.9375 250.5 C88.76589355 251.48629395 88.59428711 252.47258789 88.41748047 253.48876953 C81.37732356 292.74126187 66.16802756 330.02868315 42.9375 362.5 C42.4425 363.19706055 41.9475 363.89412109 41.4375 364.61230469 C35.33566765 373.14930841 28.83929211 381.08701772 21.6015625 388.68359375 C19.48094582 390.92547736 17.47421952 393.19440909 15.5 395.5625 C7.06694485 405.25847645 -3.07952287 413.42189504 -13.29296875 421.15429688 C-15.02021609 422.4678437 -16.72903454 423.80278952 -18.4375 425.140625 C-74.32083587 468.2111055 -147.9330177 483.91537757 -217.14453125 475.4765625 C-267.41229238 468.71446011 -315.09122059 447.93717268 -354.0625 415.5 C-354.8349707 414.86288086 -354.8349707 414.86288086 -355.62304688 414.21289062 C-368.68331019 403.40807535 -380.57819754 391.84530382 -391.0625 378.5 C-391.9906338 377.38173817 -392.92180038 376.26598878 -393.85546875 375.15234375 C-401.88287132 365.50001941 -408.66369106 355.29224441 -415.0625 344.5 C-415.53574707 343.70464844 -416.00899414 342.90929687 -416.49658203 342.08984375 C-438.15980573 305.27358793 -452.05603419 261.01196056 -452.265625 218.0859375 C-452.27263931 217.12140656 -452.27965363 216.15687561 -452.28688049 215.16311646 C-452.30429207 212.06702964 -452.3107328 208.97113398 -452.3125 205.875 C-452.31317474 204.81821045 -452.31384949 203.7614209 -452.31454468 202.67260742 C-452.29902397 187.39790972 -451.96803716 172.54076116 -449.0625 157.5 C-448.89089355 156.56510742 -448.71928711 155.63021484 -448.54248047 154.66699219 C-443.4366383 127.33545099 -434.10924821 101.03805908 -421.0625 76.5 C-420.50224121 75.42951416 -420.50224121 75.42951416 -419.93066406 74.33740234 C-411.60811417 58.49961069 -401.67228257 44.11617116 -390.0625 30.5 C-389.13995935 29.39248122 -388.21812327 28.28437528 -387.296875 27.17578125 C-377.19556699 15.10377217 -366.44258556 4.24848983 -354.0625 -5.5 C-352.91985992 -6.44157034 -351.77934851 -7.385728 -350.640625 -8.33203125 C-275.04044584 -70.75707545 -168.43964179 -83.06660592 0 0 Z M-205.125 -39.75 C-205.9301001 -39.68852783 -206.7352002 -39.62705566 -207.56469727 -39.5637207 C-209.26373429 -39.40169177 -210.95791939 -39.18173717 -212.64358521 -38.9143219 C-215.27571703 -38.59534646 -217.54176498 -38.51604752 -220.16352844 -38.56338501 C-240.21383551 -37.89365874 -252.71561763 -21.07917291 -265.68609476 -7.69889688 C-269.29290925 -3.99597812 -272.94768261 -0.34095744 -276.59689331 3.32009888 C-282.71510539 9.47130317 -288.80153827 15.65246617 -294.86621094 21.85644531 C-303.38258308 30.56831357 -311.9556723 39.22262065 -320.54057145 47.86689162 C-327.24941858 54.62650948 -333.94206019 61.40216613 -340.6328125 68.1796875 C-341.34209727 68.89775243 -342.05138204 69.61581737 -342.78216028 70.35564184 C-346.88133323 74.50724348 -350.97209047 78.6668414 -355.05108452 82.838274 C-356.27932376 84.09252366 -357.50982699 85.34456159 -358.74293327 86.59402657 C-364.87103663 92.80753431 -370.74624219 99.11185195 -376.16012573 105.96389771 C-376.60459679 106.52583324 -377.04906784 107.08776878 -377.50700772 107.66673267 C-386.06657594 118.76436544 -389.43938 129.7431537 -389.3125 143.5625 C-389.32023437 144.40876953 -389.32796875 145.25503906 -389.3359375 146.12695312 C-389.27866201 164.69852915 -379.55450144 179.20751319 -366.8125 191.875 C-366.21147461 192.44508789 -365.61044922 193.01517578 -364.99121094 193.60253906 C-363.27683087 195.28914184 -361.74093157 197.00916009 -360.19921875 198.8515625 C-354.52224697 205.39540893 -348.26820565 211.39921649 -342.125 217.5 C-340.85588627 218.7640885 -339.58700411 220.02840956 -338.31835938 221.29296875 C-335.2357368 224.36466724 -332.14999572 227.43320008 -329.0625 230.5 C-333.1646976 235.40119745 -337.4303935 239.97865248 -342.00170898 244.44165039 C-343.37971083 245.79668015 -344.75767441 247.15174883 -346.13560486 248.5068512 C-346.85670881 249.21410402 -347.57781277 249.92135685 -348.32076836 250.65004158 C-352.16085132 254.4211234 -355.98425779 258.20907288 -359.81054688 261.99414062 C-364.66924764 266.7987785 -369.5328396 271.5981316 -374.41479492 276.37915039 C-378.37255741 280.25595125 -382.31313652 284.14948841 -386.24263191 288.05492973 C-387.74157105 289.53841339 -389.24679248 291.01557679 -390.75829887 292.48625374 C-392.86494924 294.53757328 -394.94897886 296.60952958 -397.02905273 298.68774414 C-397.65907196 299.29102539 -398.28909119 299.89430664 -398.9382019 300.51586914 C-400.52179609 302.12250093 -401.89013931 303.57276833 -403.0625 305.5 C-402.98022505 309.35044997 -401.95864703 312.21910336 -400.19921875 315.609375 C-399.81314453 316.35493652 -399.42707031 317.10049805 -399.02929688 317.86865234 C-398.60712891 318.65449707 -398.18496094 319.4403418 -397.75 320.25 C-397.08774414 321.49257568 -397.08774414 321.49257568 -396.41210938 322.76025391 C-386.73636795 340.5564659 -374.74306157 356.84391143 -360.82421875 371.52734375 C-358.94503376 373.51600855 -357.16851562 375.55312762 -355.4375 377.671875 C-353.50268673 379.97583027 -351.66645314 381.88887231 -349.375 383.8125 C-347.19051456 385.66588043 -345.04021469 387.52104494 -342.95703125 389.48828125 C-325.63346753 405.7980736 -304.54992338 418.48128905 -283.0625 428.5 C-281.98484375 429.00917969 -280.9071875 429.51835937 -279.796875 430.04296875 C-229.29298945 452.79411526 -169.47731043 457.57306346 -116.0625 442.5 C-115.35872066 442.37634662 -114.65494131 442.25269323 -113.92983532 442.12529278 C-105.35685732 440.27457948 -100.29385727 434.67979157 -94.38989258 428.63793945 C-93.25842831 427.50613721 -92.12542433 426.37587247 -90.99101257 425.24702454 C-87.92982289 422.19208855 -84.89069404 419.11604236 -81.85530686 416.035496 C-78.66520181 412.80516056 -75.45547577 409.59443536 -72.24797058 406.38139343 C-66.86445054 400.9831815 -61.49377185 395.57247765 -56.13208008 390.15258789 C-48.58871667 382.5273809 -41.02275322 374.92491761 -33.45196307 367.32695448 C-27.55353292 361.40582819 -21.66080019 355.47903171 -15.76953125 349.55078125 C-15.14160242 348.91894684 -14.5136736 348.28711243 -13.86671662 347.63613153 C-10.24569278 343.99164336 -6.62769813 340.34418983 -3.01388741 336.69254875 C-1.92268923 335.59051561 -0.83072393 334.4892414 0.26209641 333.38881683 C18.92099029 314.69805831 18.92099029 314.69805831 30.9375 291.5 C31.30230469 290.43652344 31.66710937 289.37304688 32.04296875 288.27734375 C35.4577388 273.8577689 33.45886226 258.24653402 26.25 245.375 C12.12194698 223.57244904 -8.71662027 205.70323832 -27.0625 187.5 C-22.94840566 182.596024 -18.67722792 177.97464193 -14.13916016 173.46313477 C-13.4750412 172.79886978 -12.81092224 172.1346048 -12.12667847 171.45021057 C-9.95400441 169.27822731 -7.77782128 167.10979721 -5.6015625 164.94140625 C-4.08534228 163.42705318 -2.56934424 161.91247763 -1.05355835 160.39768982 C2.91931703 156.42861628 6.89518731 152.46255619 10.8717041 148.49713135 C14.93582554 144.44327438 18.99708622 140.38655363 23.05859375 136.33007812 C31.01544327 128.38392474 38.97546194 120.44095423 46.9375 112.5 C46.47689938 111.08009563 46.01293919 109.66128084 45.54760742 108.24291992 C45.16060921 107.05758919 45.16060921 107.05758919 44.76579285 105.84831238 C43.53427235 102.35679989 41.94075125 99.10076869 40.25 95.8125 C39.89969727 95.12534912 39.54939453 94.43819824 39.18847656 93.73022461 C38.11694363 91.64687488 37.03117452 89.57180235 35.9375 87.5 C35.62151855 86.89994141 35.30553711 86.29988281 34.97998047 85.68164062 C19.9739268 57.53037936 -2.62863017 30.83867643 -28.0625 11.5 C-28.69752441 11.01563477 -29.33254883 10.53126953 -29.98681641 10.03222656 C-41.16316499 1.567269 -52.69702682 -5.89262833 -65.0625 -12.5 C-65.83803223 -12.91846191 -66.61356445 -13.33692383 -67.41259766 -13.76806641 C-89.37586407 -25.42993751 -114.45836987 -33.89001338 -139.0625 -37.5 C-139.94502441 -37.64373047 -140.82754883 -37.78746094 -141.73681641 -37.93554688 C-162.74245353 -41.33260636 -183.93644353 -41.43748622 -205.125 -39.75 Z " fill="#A5FA6F" transform="translate(452.0625,68.5)"/>
<path d="M0 0 C4.07331924 3.45064623 6.80487965 5.84756182 8.515625 11.015625 C9.175625 11.015625 9.835625 11.015625 10.515625 11.015625 C10.78632812 10.43296875 11.05703125 9.8503125 11.3359375 9.25 C17.53119522 -2.4840643 29.9322434 -9.07633533 42.09375 -13.01953125 C61.9714666 -18.6243212 85.02699845 -17.70275562 103.515625 -7.984375 C118.46136664 0.92642432 127.60933268 13.34134167 132.515625 30.015625 C135.24982884 41.25682898 134.77027316 52.70699677 134.7109375 64.1875 C134.70720105 66.32269152 134.70435707 68.45788476 134.70236206 70.59307861 C134.69477534 76.17595263 134.67517015 81.75872033 134.6529541 87.34155273 C134.62876354 94.05982263 134.61969105 100.77812834 134.60804749 107.49642944 C134.58874235 117.66956826 134.5503852 127.84247444 134.515625 138.015625 C120.325625 138.015625 106.135625 138.015625 91.515625 138.015625 C91.46664063 132.23546875 91.41765625 126.4553125 91.3671875 120.5 C91.33176307 116.81769182 91.29578136 113.13540568 91.2578125 109.453125 C91.19772314 103.62047642 91.13959321 97.78785835 91.09375 91.95507812 C91.05662159 87.24763738 91.01019053 82.54036853 90.95756149 77.83307648 C90.9391628 76.04556573 90.92400251 74.25801835 90.91228104 72.47045135 C91.2049167 51.4959992 91.2049167 51.4959992 82.140625 33.265625 C75.21856395 27.33242981 68.86046351 24.48994079 59.65625 24.76171875 C51.34334755 25.7477382 44.63469245 28.75148465 38.828125 34.828125 C33.32107767 42.41891997 32.37551551 49.54151571 32.31030273 58.66137695 C32.30040314 59.5204213 32.29050354 60.37946564 32.28030396 61.26454163 C32.24880287 64.09430213 32.22397668 66.92407939 32.19921875 69.75390625 C32.17863938 71.71974617 32.15764265 73.68558177 32.13624573 75.65141296 C32.08112658 80.81837452 32.03167259 85.98537534 31.98339844 91.15240479 C31.92426294 97.35578951 31.85809096 103.55910269 31.79309845 109.76242828 C31.69521676 119.18011672 31.60627324 128.59785165 31.515625 138.015625 C17.325625 138.015625 3.135625 138.015625 -11.484375 138.015625 C-11.53335937 131.91191406 -11.58234375 125.80820313 -11.6328125 119.51953125 C-11.66821866 115.64125996 -11.70419001 111.76301028 -11.7421875 107.88476562 C-11.80237917 101.73579074 -11.86053405 95.58684591 -11.90625 89.43774414 C-11.94325901 84.47745019 -11.98966056 79.51732313 -12.04243851 74.55717278 C-12.06089975 72.66949341 -12.07603787 70.78177838 -12.08771896 68.89404488 C-12.10472377 66.2398195 -12.13379153 63.5859695 -12.16552734 60.93188477 C-12.16768753 60.16007874 -12.16984772 59.38827271 -12.17207336 58.59307861 C-12.32947758 48.21568915 -14.73763562 40.1111111 -21.96484375 32.4453125 C-27.46182218 27.52308517 -34.16121534 25.09494903 -41.46484375 24.9609375 C-49.90024789 25.43356672 -57.08918719 26.7414911 -63.328125 32.80859375 C-69.21221422 40.03390919 -70.93295393 48.16100037 -70.91674805 57.29907227 C-70.9269397 58.17820786 -70.93713135 59.05734344 -70.94763184 59.96311951 C-70.97755244 62.83615668 -70.98699552 65.70885932 -70.99609375 68.58203125 C-71.01295598 70.58700144 -71.03110829 72.59196116 -71.05049133 74.59690857 C-71.0978297 79.84930142 -71.12774345 85.1016518 -71.15393066 90.35418701 C-71.18908163 96.66952427 -71.24604815 102.9846985 -71.29932404 109.29990387 C-71.37764825 118.87178973 -71.42839746 128.44346494 -71.484375 138.015625 C-86.004375 138.015625 -100.524375 138.015625 -115.484375 138.015625 C-115.60470143 115.19816902 -115.60470143 115.19816902 -115.63085938 105.3828125 C-115.64871035 98.71639739 -115.6697013 92.05010729 -115.71069336 85.38378906 C-115.74357447 80.00210206 -115.76128793 74.62054933 -115.76900673 69.23876953 C-115.7744991 67.19773244 -115.78522236 65.15670171 -115.80156517 63.11572266 C-115.98233926 39.57805828 -113.00442573 19.21396593 -96.296875 1.328125 C-70.65057118 -23.27493935 -26.67149026 -21.30364316 0 0 Z " fill="#6F00FF" transform="translate(1340.484375,104.984375)"/>
<path d="M0 0 C0.00146656 0.5475529 0.00293312 1.0951058 0.00444412 1.65925121 C0.04176699 15.08585123 0.10135628 28.51220093 0.18390274 41.93860149 C0.22317456 48.43197735 0.2554617 54.9252217 0.27099609 61.41870117 C0.28629743 67.70182805 0.32097767 73.98459287 0.36830902 80.26755714 C0.3829852 82.64771159 0.39103296 85.02791776 0.39188385 87.40811729 C0.41189053 115.34768416 4.16793874 144.50537073 24 166 C39.14321621 180.54509995 58.46379346 185.67210532 78.95068359 185.33227539 C98.25565406 184.69557789 117.59184423 178.62338006 131.16015625 164.22265625 C151.45966685 139.69946828 153.08172549 108.05536125 153.31640625 77.734375 C153.33701066 75.48707731 153.35800796 73.2397832 153.37937927 70.99249268 C153.43424016 65.11377884 153.48380622 59.23503215 153.53222656 53.35626221 C153.58270645 47.34294759 153.63825343 41.32967994 153.69335938 35.31640625 C153.80049997 23.54431108 153.90204051 11.7721749 154 0 C159.41812694 0.65582477 164.7290506 1.44530448 170.0625 2.625 C170.81329834 2.79104736 171.56409668 2.95709473 172.33764648 3.12817383 C200.64585062 9.64585062 200.64585062 9.64585062 204 13 C204.121823 15.60652434 204.1786279 18.18700292 204.19287109 20.79492188 C204.20513733 22.02237625 204.20513733 22.02237625 204.21765137 23.27462769 C204.24261559 26.00599443 204.25907416 28.73730772 204.2734375 31.46875 C204.27876118 32.40749466 204.28408485 33.34623932 204.28956985 34.31343079 C204.31638408 39.30888045 204.33570827 44.30430475 204.35009766 49.29980469 C204.36328474 53.39053478 204.39083533 57.48074781 204.43212891 61.57128906 C204.83701229 102.59196022 201.32968003 138.56273848 174 171 C173.57493164 171.51014648 173.14986328 172.02029297 172.71191406 172.54589844 C154.45629869 194.20812977 128.59885784 208.33212311 101 214 C99.42025391 214.33837891 99.42025391 214.33837891 97.80859375 214.68359375 C83.13870138 217.40024049 67.61524664 216.6979622 53 214 C52.32904297 213.87641113 51.65808594 213.75282227 50.96679688 213.62548828 C39.93992114 211.51770967 30.06130638 207.94434979 20 203 C19.00226563 202.5153125 18.00453125 202.030625 16.9765625 201.53125 C5.74735143 195.73967982 -3.85398714 187.63202206 -13 179 C-13.74894531 178.31550781 -14.49789062 177.63101563 -15.26953125 176.92578125 C-29.16993848 163.75569314 -38.18571375 147.07521024 -44.3125 129.125 C-44.63814941 128.18156738 -44.96379883 127.23813477 -45.29931641 126.26611328 C-50.3770076 110.67393101 -51.4346204 95.5779865 -51.29296875 79.30859375 C-51.28735625 77.38233271 -51.283094 75.45606731 -51.28010559 73.52980042 C-51.26878679 68.52067724 -51.23943531 63.51182541 -51.20599365 58.50280762 C-51.1750091 53.36714343 -51.16154032 48.23143433 -51.14648438 43.09570312 C-51.11454986 33.06368448 -51.06351561 23.03186502 -51 13 C-43.32523008 9.6760698 -43.32523008 9.6760698 -39.72265625 8.75390625 C-38.59283325 8.4604834 -38.59283325 8.4604834 -37.44018555 8.16113281 C-36.65554932 7.96358398 -35.87091309 7.76603516 -35.0625 7.5625 C-34.23854736 7.35077148 -33.41459473 7.13904297 -32.56567383 6.92089844 C-30.04514908 6.27509415 -27.52267031 5.63736362 -25 5 C-23.47126593 4.60841722 -21.94261611 4.21650536 -20.4140625 3.82421875 C-5.39337166 0 -5.39337166 0 0 0 Z " fill="#FDFDFF" transform="translate(195,190)"/>
<path d="M0 0 C14.19 0 28.38 0 43 0 C43.33 19.8 43.66 39.6 44 60 C47.3 57.69 50.6 55.38 54 53 C66.57582775 46.41266166 79.20255136 44.44114856 93.3125 44.5625 C94.57924561 44.57152344 95.84599121 44.58054687 97.15112305 44.58984375 C118.93567182 44.99106841 137.21471167 51.80404556 153.1015625 67.01171875 C169.71167281 84.35934361 173.55259866 106.24573072 173.26953125 129.421875 C172.69823013 149.22322826 164.01478972 167.50308914 149.734375 181.16796875 C129.07725124 198.84964588 102.43638517 203.50871633 76 202 C53.23825185 200.01731477 31.64984003 192.54797557 16.3125 174.875 C3.62920389 158.60631983 -0.17297993 140.14618044 -0.11352539 119.99633789 C-0.11367142 118.69809082 -0.11381744 117.39984375 -0.1139679 116.06225586 C-0.11425369 112.51938093 -0.1083922 108.97654016 -0.10139394 105.43367314 C-0.09512412 101.72478107 -0.09455374 98.01588813 -0.09336853 94.30699158 C-0.09026589 87.29131406 -0.08206693 80.27565221 -0.07201904 73.25998157 C-0.06082471 65.26964696 -0.0553391 57.27931158 -0.05032361 49.28897107 C-0.03988339 32.85930344 -0.02155122 16.42965738 0 0 Z M51.50390625 99.8828125 C44.84675165 109.25470287 43.95187262 119.84629121 45 131 C47.56965232 142.19729327 53.88257217 150.20791039 63 157 C65.89052162 158.48904557 65.89052162 158.48904557 68.9375 159.6875 C70.43603516 160.31205078 70.43603516 160.31205078 71.96484375 160.94921875 C84.47078226 165.27881651 97.04935016 163.22530677 108.796875 157.6796875 C118.71157082 152.181538 124.17325351 144.57889835 128 134 C130.82309089 122.67190111 128.91885011 111.97712686 123.375 101.875 C116.94838428 91.84128869 108.07008033 86.28214925 96.578125 83.390625 C78.35953553 80.63023266 63.40688892 85.68760811 51.50390625 99.8828125 Z " fill="#6F00FF" transform="translate(690,286)"/>
<path d="M0 0 C4.00403213 3.40907936 7.27716415 7.19089456 10.62890625 11.23828125 C10.62890625 4.30828125 10.62890625 -2.62171875 10.62890625 -9.76171875 C24.81890625 -9.76171875 39.00890625 -9.76171875 53.62890625 -9.76171875 C53.65078003 -5.19759155 53.65078003 -5.19759155 53.6730957 -0.54125977 C53.72350637 9.52906744 53.79011304 19.59924108 53.86462116 29.66941738 C53.90928615 35.77300627 53.94855102 41.87652901 53.9753418 47.98022461 C54.00141307 53.87422799 54.04184307 59.76797627 54.09209251 65.66182137 C54.10873528 67.90675742 54.12026564 70.15173758 54.12652016 72.39672661 C54.13618922 75.54917818 54.16428291 78.70098089 54.1965332 81.85327148 C54.19509811 82.77468933 54.19366302 83.69610718 54.19218445 84.64544678 C54.27687835 90.52636651 55.0522537 95.88554706 57.62890625 101.23828125 C61.89408211 104.34022733 67.46978467 103.72236909 72.62890625 104.23828125 C72.62890625 116.44828125 72.62890625 128.65828125 72.62890625 141.23828125 C64.55421875 141.36203125 64.55421875 141.36203125 56.31640625 141.48828125 C54.64151123 141.52469727 52.96661621 141.56111328 51.2409668 141.59863281 C38.39563366 141.76377946 29.32025409 139.73415131 19.79296875 130.5546875 C17.03428389 127.60179919 14.80696929 124.64150475 12.62890625 121.23828125 C11.96890625 120.24828125 11.30890625 119.25828125 10.62890625 118.23828125 C10.23960937 118.79515625 9.8503125 119.35203125 9.44921875 119.92578125 C-0.94156639 134.09938678 -15.38261882 141.35913917 -32.4453125 144.63671875 C-34.42502689 144.93387669 -36.37315461 145.11341005 -38.37109375 145.23828125 C-39.54671875 145.31755859 -39.54671875 145.31755859 -40.74609375 145.3984375 C-59.20397562 146.03018048 -77.30169851 139.85472475 -91.2578125 127.73046875 C-97.42739198 121.82181282 -102.21981458 115.69097141 -106.37109375 108.23828125 C-106.83128906 107.4390625 -107.29148437 106.63984375 -107.765625 105.81640625 C-118.25809593 86.41642978 -119.47201672 61.23623703 -113.37109375 40.23828125 C-107.25981067 20.87469201 -96.09408262 4.9596048 -78.18261719 -4.84375 C-53.93544848 -17.13072498 -21.99757673 -16.61552381 0 0 Z M-66.61328125 40.953125 C-74.18789578 50.80012388 -75.49885142 62.23718208 -74.37109375 74.23828125 C-71.75262351 85.64829926 -65.10974321 94.04883917 -55.70703125 100.8125 C-45.21915399 107.21396354 -32.80866999 107.87542291 -20.96875 105.578125 C-10.06595468 102.33675342 -1.32510333 95.96105222 4.62890625 86.23828125 C10.06181093 75.27308949 10.8508531 65.0196945 7.6640625 53.265625 C4.43254247 43.81495321 -1.274205 36.62945014 -10.01171875 31.76953125 C-29.67289898 22.32337762 -51.21987416 24.78069934 -66.61328125 40.953125 Z " fill="#6F00FF" transform="translate(998.37109375,342.76171875)"/>
<path d="M0 0 C14.19 0 28.38 0 43 0 C43.33 37.62 43.66 75.24 44 114 C48.29 109.05 52.58 104.1 57 99 C61.75 93.75 61.75 93.75 63.89453125 91.38671875 C66.14786272 88.83238568 68.29655057 86.21159799 70.4375 83.5625 C74.29708603 78.79003797 78.37199991 74.26890891 82.52734375 69.75390625 C85.65402368 66.271585 88.59160021 62.65845044 91.50390625 58.99609375 C92.32761719 58.00738281 93.15132812 57.01867187 94 56 C94.45028564 55.16049805 94.90057129 54.32099609 95.36450195 53.45605469 C97.50328282 50.15085234 99.44051228 47.70231004 103 46 C111.50510062 44.27050092 120.44645377 45.06479658 129.0625 45.375 C131.47842391 45.42520018 133.89444759 45.4708206 136.31054688 45.51171875 C142.20921935 45.6215146 148.10414556 45.78847275 154 46 C152.38182825 49.40829937 150.52234036 51.79530758 147.9375 54.5625 C144.68892508 58.10168226 141.57531784 61.69560168 138.5625 65.4375 C134.70174863 70.211403 130.62562925 74.73388428 126.46875 79.25 C124.05621896 81.93737634 121.7674379 84.68965444 119.5 87.5 C115.67150179 92.24518087 111.6254047 96.73513 107.49609375 101.21875 C104.16258934 104.93307729 101.02937726 108.7927195 97.91015625 112.6875 C96 115 96 115 94.18359375 116.5625 C92.76868934 117.94531729 92.76868934 117.94531729 93.13671875 119.9765625 C94.09728208 122.22801863 95.14616498 123.58298034 96.8125 125.375 C99.65858309 128.5056914 102.43914475 131.67476016 105.17382812 134.90234375 C110.73578062 141.46185934 116.47503374 147.82499032 122.33203125 154.12109375 C126.5674635 158.6913918 130.63526191 163.39164663 134.66796875 168.140625 C140.33740325 174.80522123 146.08299109 181.36277212 152.07885742 187.73706055 C159 195.12301174 159 195.12301174 159 198 C151.95788945 198.33202095 144.9178194 198.55822036 137.86962891 198.71411133 C135.4772605 198.77914063 133.08540188 198.86760288 130.69482422 198.98071289 C109.73059102 199.94714917 109.73059102 199.94714917 103.8112793 195.19555664 C100.69159007 192.10293744 98.36152212 188.69199255 96 185 C94.79800107 183.58070441 93.57595915 182.17737082 92.3125 180.8125 C91.78011719 180.19761719 91.24773437 179.58273437 90.69921875 178.94921875 C87.18595331 174.91905909 83.58316944 170.96793932 80 167 C71.43139793 157.51127959 71.43139793 157.51127959 67.5625 153.0625 C64.75177475 149.83440488 61.884201 146.66261557 59 143.5 C48.40322581 131.87096774 48.40322581 131.87096774 44 126 C43.67 149.76 43.34 173.52 43 198 C28.81 198 14.62 198 0 198 C0 132.66 0 67.32 0 0 Z " fill="#6F00FF" transform="translate(1291,287)"/>
<path d="M0 0 C14.19 0 28.38 0 43 0 C43 8.91 43 17.82 43 27 C45.39257455 24.60742545 47.12612339 22.47139416 49.0625 19.75 C58.02392449 8.17717508 72.74389485 1.86704321 87 0 C107.48874582 -1.43641888 126.99112844 1.15124604 143 15 C157.52742352 29.67796677 160.39181996 48.02252815 160.33988953 67.71943665 C160.32457594 69.86113721 160.30892806 72.0028354 160.29296875 74.14453125 C160.28736353 76.36797294 160.28309781 78.59141837 160.28010559 80.81486511 C160.26872974 86.62629687 160.23932601 92.43749857 160.20599365 98.24884033 C160.16969598 105.24327084 160.15609702 112.23777889 160.13863373 119.23227692 C160.10968367 129.82167725 160.05214563 140.4105742 160 151 C145.81 151 131.62 151 117 151 C116.95101563 145.25722656 116.90203125 139.51445312 116.8515625 133.59765625 C116.81615351 129.94724861 116.78018056 126.29686381 116.7421875 122.64648438 C116.68201167 116.85965339 116.62386062 111.07285415 116.578125 105.28588867 C116.54109752 100.61736207 116.49469136 95.94901217 116.44193649 91.28063774 C116.42348494 89.50460363 116.40834335 87.72853177 116.39665604 85.95244026 C116.3796343 83.45387011 116.35056319 80.95569657 116.31884766 78.45727539 C116.31668747 77.73222305 116.31452728 77.00717072 116.31230164 76.26014709 C116.16420619 67.05458231 114.32420773 57.92779506 108.125 50.86328125 C100.19869516 43.20590461 91.29161074 40.42416995 80.40234375 39.90625 C70.67815865 40.1741954 61.22160615 42.14987564 54 49 C46.47390424 58.10093958 43.88732877 67.32995903 43.79467773 79.02490234 C43.78477814 79.80606415 43.77487854 80.58722595 43.76467896 81.39205933 C43.73326243 83.95665527 43.7083856 86.52126969 43.68359375 89.0859375 C43.66300705 90.87098656 43.64201014 92.65603093 43.62062073 94.44107056 C43.56557721 99.12632437 43.51609019 103.81162088 43.46777344 108.49694824 C43.40856814 114.12551008 43.34243818 119.75399433 43.27747345 125.38249207 C43.17968706 133.92161376 43.0906785 142.46078654 43 151 C28.81 151 14.62 151 0 151 C0 101.17 0 51.34 0 0 Z " fill="#6F00FF" transform="translate(1101,333)"/>
<path d="M0 0 C45.87 0 91.74 0 139 0 C139 12.54 139 25.08 139 38 C136.36 40.31 133.72 42.62 131 45 C128.86642033 46.95026495 126.74039465 48.90540323 124.625 50.875 C120.77476645 54.44513573 116.91120526 57.99647738 113 61.5 C109.13337433 64.96489833 105.30986214 68.47304568 101.5 72 C96.87380193 76.28227279 92.21321325 80.52207859 87.51953125 84.73046875 C84.70741924 87.26354949 81.91369972 89.81622206 79.125 92.375 C78.62726074 92.83148926 78.12952148 93.28797852 77.61669922 93.75830078 C74.98937885 96.1694225 72.36594835 98.58467468 69.74609375 101.00390625 C69.21290527 101.4952002 68.6797168 101.98649414 68.13037109 102.49267578 C66.64962364 103.85721384 65.17046487 105.22347531 63.69140625 106.58984375 C61.20513617 108.81630041 58.60611946 110.91510443 56 113 C85.04 113.33 114.08 113.66 144 114 C144 126.21 144 138.42 144 151 C95.49 151 46.98 151 -3 151 C-3 138.46 -3 125.92 -3 113 C1.1803845 108.8196155 5.19751916 104.90596701 9.640625 101.07421875 C12.59864357 98.47370905 15.48692625 95.80268981 18.375 93.125 C23.03926296 88.80235068 27.73694285 84.52183243 32.47265625 80.27734375 C35.33082203 77.70190225 38.16710261 75.10314236 41 72.5 C45.45332617 68.40830793 49.93659888 64.35177023 54.4375 60.3125 C58.2309403 56.88915144 61.99047 53.42922648 65.75 49.96875 C70.14439044 45.95464334 74.57607462 41.98153285 79 38 C52.93 37.67 26.86 37.34 0 37 C0 24.79 0 12.58 0 0 Z " fill="#6F00FF" transform="translate(871,92)"/>
<path d="M0 0 C14.52 0 29.04 0 44 0 C44.02578125 6.21328125 44.0515625 12.4265625 44.078125 18.828125 C44.10331612 22.78389439 44.1296665 26.73958904 44.16015625 30.6953125 C44.20835346 36.96256716 44.25244979 43.22964861 44.27099609 49.49707031 C44.28623261 54.55475221 44.32080131 59.61197843 44.36830902 64.66945648 C44.38305101 66.59092987 44.39103685 68.51246835 44.39188385 70.43399811 C44.22885633 89.457403 44.22885633 89.457403 53.3203125 105.60546875 C60.3809504 111.46744022 69.33862022 113.31415749 78.37890625 112.8125 C87.61526228 111.61380721 94.88654934 109.30217718 101 102 C106.00989955 94.41358068 107.29422879 87.04900296 107.31884766 78.10546875 C107.32889328 77.2557399 107.3389389 76.40601105 107.34928894 75.53053284 C107.37993574 72.74952815 107.39710419 69.96861891 107.4140625 67.1875 C107.43278906 65.24836415 107.45236357 63.30923632 107.4727478 61.37011719 C107.52391779 56.28705591 107.56362425 51.20396826 107.60089111 46.12078857 C107.64809279 40.01074009 107.70962543 33.90082093 107.76873779 27.7908783 C107.85676541 18.52730483 107.92666195 9.26375384 108 0 C122.52 0 137.04 0 152 0 C152.08021762 19.74244726 152.08021762 19.74244726 152.09765625 28.26953125 C152.10953259 34.04902905 152.12345889 39.82846246 152.15087891 45.60791016 C152.17288501 50.27637555 152.18462601 54.94477174 152.18975449 59.61328506 C152.19340114 61.3791322 152.20051899 63.1449763 152.21146011 64.9107933 C152.26495024 73.91602523 152.08679581 82.80956617 151.12451172 91.77001953 C151.04837206 92.49093214 150.9722324 93.21184475 150.89378548 93.9546032 C148.77998307 111.57545071 139.54129534 126.81265013 126 138 C107.75896686 151.3974945 85.30386091 156.63298678 62.98046875 153.49609375 C50.62731291 151.26972684 39.40429145 147.03511654 29 140 C27.87851563 139.26716797 27.87851563 139.26716797 26.734375 138.51953125 C12.48371342 128.42946492 4.0129372 111.90712964 1 95 C0.1785266 89.00932734 -0.14167121 83.12586639 -0.11352539 77.08374023 C-0.11367142 76.24361893 -0.11381744 75.40349762 -0.1139679 74.53791809 C-0.11327803 71.79478258 -0.10552954 69.05171722 -0.09765625 66.30859375 C-0.09578877 64.39331601 -0.09436643 62.47803779 -0.09336853 60.5627594 C-0.0895693 55.54705462 -0.07976144 50.53137927 -0.06866455 45.51568604 C-0.0565854 39.48412433 -0.05203583 33.45255273 -0.04621124 27.42098236 C-0.03654808 18.2806345 -0.01737342 9.14035109 0 0 Z " fill="#7000FF" transform="translate(1044,92)"/>
<path d="M0 0 C14.19 0 28.38 0 43 0 C43.04898438 6.10371094 43.09796875 12.20742187 43.1484375 18.49609375 C43.18384366 22.37436504 43.21981501 26.25261472 43.2578125 30.13085938 C43.31800417 36.27983426 43.37615905 42.42877909 43.421875 48.57788086 C43.45888401 53.53817481 43.50528556 58.49830187 43.55806351 63.45845222 C43.57652475 65.34613159 43.59166287 67.23384662 43.60334396 69.12158012 C43.62034877 71.7758055 43.64941653 74.4296555 43.68115234 77.08374023 C43.68331253 77.85554626 43.68547272 78.62735229 43.68769836 79.42254639 C43.83303321 89.00422326 45.84945908 97.45277375 52 105 C59.6373231 111.80901048 69.24638506 113.26291445 79.2109375 112.875 C87.67426262 111.83068225 95.52073808 108.56931635 100.9375 101.75 C107.15740279 91.13180494 106.47301716 79.68341912 106.51171875 67.7734375 C106.52858551 65.81473682 106.54673841 63.85604683 106.56611633 61.89736938 C106.6134056 56.77157941 106.64335088 51.6458328 106.66955566 46.51989746 C106.70473809 40.35387808 106.76169036 34.18802516 106.81494904 28.0221405 C106.89321555 18.68144881 106.94400823 9.34097131 107 0 C121.52 0 136.04 0 151 0 C151.08021762 20.61147146 151.08021762 20.61147146 151.09765625 29.48242188 C151.10955377 35.50581441 151.12353925 41.52914541 151.15087891 47.55249023 C151.17281037 52.41545722 151.18461087 57.2783581 151.18975449 62.14137077 C151.19341416 63.98505632 151.20055906 65.82873876 151.21146011 67.67239571 C151.35017473 92.13356659 148.38409431 114.27145235 131 133 C115.68053944 147.96127173 94.08203579 154.27666276 73.11791992 154.24658203 C52.60655136 153.94430487 33.58379996 146.3434718 18.6875 132.1875 C6.22462055 119.08549852 -0.38002168 102.3600817 -0.22705078 84.34936523 C-0.22734283 83.43121536 -0.22763489 82.51306549 -0.22793579 81.5670929 C-0.22655419 78.56416014 -0.21104859 75.5614826 -0.1953125 72.55859375 C-0.1915782 70.46395503 -0.1887332 68.36931456 -0.18673706 66.27467346 C-0.17913342 60.78546246 -0.15951321 55.2963588 -0.1373291 49.80718994 C-0.11318494 43.20830249 -0.10407412 36.60937897 -0.09242249 30.0104599 C-0.07308678 20.00689882 -0.03474133 10.00357284 0 0 Z " fill="#6F00FF" transform="translate(690,92)"/>
<path d="M0 0 C1.19689453 -0.00128906 2.39378906 -0.00257813 3.62695312 -0.00390625 C5.46870117 0.00189453 5.46870117 0.00189453 7.34765625 0.0078125 C9.18360352 0.00201172 9.18360352 0.00201172 11.05664062 -0.00390625 C12.85391602 -0.00197266 12.85391602 -0.00197266 14.6875 0 C15.76249756 0.00112793 16.83749512 0.00225586 17.94506836 0.00341797 C22.1142117 0.15910359 26.26362444 0.67208674 30.41015625 1.1328125 C30.41015625 35.7828125 30.41015625 70.4328125 30.41015625 106.1328125 C15.56015625 106.1328125 0.71015625 106.1328125 -14.58984375 106.1328125 C-14.58984375 71.4828125 -14.58984375 36.8328125 -14.58984375 1.1328125 C-9.49482783 0.49593551 -5.04225409 0.00529609 0 0 Z " fill="#FDFCFF" transform="translate(263.58984375,139.8671875)"/>
</svg>
