<?xml version="1.0" encoding="UTF-8"?>
<svg version="1.1" xmlns="http://www.w3.org/2000/svg" width="3125" height="1015">
<path d="M0 0 C2.26863595 0.00084824 4.53727273 0.0003673 6.8059082 -0.00132751 C12.90802736 -0.00218122 19.00996625 0.01534242 25.11204386 0.03639436 C31.5101417 0.05526631 37.90824458 0.05691984 44.30636597 0.06047058 C55.02687247 0.06870773 65.74730094 0.08739121 76.46777344 0.11425781 C87.50032225 0.14187742 98.5328532 0.16307209 109.56542969 0.17578125 C110.24770965 0.17656942 110.92998961 0.17735759 111.63294472 0.17816965 C115.05640958 0.18208531 118.47987456 0.1858763 121.90333962 0.18960536 C150.2166919 0.22060676 178.52997328 0.27358504 206.84326172 0.34057617 C214.89991128 38.67928576 222.95641965 77.0180136 230.94091797 115.37182617 C231.08113743 116.04534347 231.22135688 116.71886076 231.36582541 117.41278768 C232.9491722 125.01832954 234.53182299 132.62401614 236.11416626 140.22976685 C239.32906117 155.68250406 242.54670792 171.13466838 245.76513672 186.58666992 C246.01439954 187.78344679 246.01439954 187.78344679 246.26869798 189.00440097 C251.41099267 213.69335432 256.56664403 238.37948885 261.73388672 263.06323242 C261.89659246 263.840501 262.05929821 264.61776957 262.22693443 265.41859174 C263.87549295 273.29398908 265.5242323 281.16934856 267.17306376 289.04468876 C279.13832547 346.19460105 291.05092244 403.3551527 302.90576172 460.52807617 C305.68019191 473.90834868 308.45467707 487.28860975 311.22998047 500.66870117 C311.39666001 501.47229427 311.56333955 502.27588737 311.73506999 503.10383177 C317.86740468 532.66793776 324.0302589 562.22556687 330.21826172 591.77807617 C332.04271808 600.49156811 333.8670797 609.20507984 335.69091797 617.91870117 C335.92533978 619.03866486 336.15976158 620.15862854 336.40128708 621.31253052 C340.89250381 642.77253403 345.36768141 664.2358685 349.83935547 685.69995117 C350.10429971 686.9716712 350.10429971 686.9716712 350.37459636 688.26908255 C354.06158308 705.96670055 357.74736452 723.6645695 361.43213147 741.3626498 C363.48822612 751.23815016 365.54455789 761.11360112 367.60107422 770.98901367 C367.78801889 771.88674956 367.97496356 772.78448545 368.16757321 773.70942545 C373.70574637 800.30408028 379.25538351 826.89632085 384.81485611 853.4865312 C386.22685249 860.2399995 387.63836552 866.99356866 389.04954529 873.74720764 C389.24580212 874.6864369 389.44205896 875.62566616 389.64426297 876.59335691 C390.42920707 880.3498991 391.21414322 884.10644296 391.99902523 887.86299813 C394.28908463 898.82339626 396.58099271 909.78340397 398.87596393 920.74277472 C400.30146207 927.55079522 401.7248558 934.35925348 403.14658761 941.16806149 C403.96674378 945.09545622 404.78793127 949.02262837 405.61176682 952.94925308 C406.36533277 956.54098238 407.11618034 960.13326847 407.86482275 963.72602713 C408.26607146 965.64796261 408.67030574 967.56927403 409.07462788 969.4905653 C409.31004386 970.62300324 409.54545984 971.75544119 409.78800964 972.92219543 C409.99327868 973.90324658 410.19854773 974.88429773 410.41003704 975.89507771 C410.84326172 978.34057617 410.84326172 978.34057617 410.84326172 981.34057617 C333.29326172 981.34057617 255.74326172 981.34057617 175.84326172 981.34057617 C174.48311547 977.26013741 173.3787847 973.57346448 172.50180054 969.41368103 C172.13166084 967.67041786 172.13166084 967.67041786 171.75404358 965.89193726 C171.49006271 964.63096222 171.22608185 963.36998718 170.95410156 962.07080078 C170.66838389 960.71837887 170.38237043 959.36601941 170.09608459 958.01371765 C169.32219955 954.35340067 168.55281646 950.69215135 167.78453016 947.03065562 C167.14214609 943.97108808 166.49762456 940.91197241 165.85312903 937.85284907 C164.33291638 930.63679277 162.81642462 923.41996139 161.30224609 916.20263672 C159.74077491 908.7602181 158.17302118 901.31914261 156.60218084 893.87869638 C155.25243929 887.48440915 153.9065966 881.08930983 152.56387675 874.69354445 C151.76242204 870.87617842 150.95949407 867.05913758 150.15281296 863.24287224 C149.39481878 859.65609874 148.64170239 856.06833513 147.89231682 852.47975349 C147.48537719 850.53702466 147.07347323 848.59533777 146.66142273 846.65368652 C146.42030258 845.4943309 146.17918243 844.33497528 145.93075562 843.14048767 C145.71949728 842.13523009 145.50823895 841.12997252 145.29057884 840.09425259 C144.84326172 837.34057617 144.84326172 837.34057617 144.84326172 832.34057617 C38.25326172 832.34057617 -68.33673828 832.34057617 -178.15673828 832.34057617 C-179.64173828 837.78557617 -179.64173828 837.78557617 -181.15673828 843.34057617 C-181.80802392 845.40412764 -182.480368 847.46133575 -183.18701172 849.5065918 C-183.55936447 850.58983231 -183.93171722 851.67307281 -184.31535339 852.78913879 C-184.71160416 853.93017563 -185.10785492 855.07121246 -185.51611328 856.24682617 C-185.93737991 857.46887253 -186.35864655 858.69091888 -186.79267883 859.94999695 C-187.92540703 863.23536855 -189.06257008 866.51918801 -190.2007637 869.80266953 C-191.15084944 872.54524142 -192.09835445 875.28870189 -193.04584217 878.0321722 C-196.07542113 886.80420462 -199.11426903 895.57300732 -202.15673828 904.34057617 C-202.54267151 905.45285583 -202.92860474 906.5651355 -203.32623291 907.71112061 C-205.61948293 914.31831385 -207.91690062 920.92404409 -210.21923828 927.52807617 C-210.48982056 928.30425293 -210.76040283 929.08042969 -211.03918457 929.88012695 C-217.02942401 947.05085786 -223.10418638 964.19167911 -229.15673828 981.34057617 C-317.26673828 981.34057617 -405.37673828 981.34057617 -496.15673828 981.34057617 C-489.27030379 962.97675087 -489.27030379 962.97675087 -486.33642578 956.05932617 C-486.00016174 955.25900467 -485.66389771 954.45868317 -485.31744385 953.6341095 C-484.59856063 951.92402049 -483.87832587 950.21449908 -483.15679932 948.50552368 C-481.58108259 944.77310186 -480.01243989 941.03771788 -478.44320679 937.30256653 C-477.61218642 935.32471186 -476.78082277 933.34700138 -475.9491272 931.36943054 C-471.3680625 920.47450116 -466.82409751 909.56418556 -462.28173828 898.65307617 C-461.4454293 896.6449234 -460.60908475 894.63678544 -459.77270508 892.62866211 C-458.08529232 888.57713237 -456.39805484 884.52552971 -454.7109375 880.47387695 C-450.84805397 871.19751451 -446.98277724 861.9221492 -443.1177063 852.646698 C-441.0264567 847.62802972 -438.93535385 842.6093003 -436.84423828 837.59057617 C-436.04345775 835.66870087 -435.24267651 833.74682587 -434.44189453 831.82495117 C-433.86665039 830.44436523 -433.86665039 830.44436523 -433.27978516 829.03588867 C-432.20882161 826.46557617 -431.13785807 823.89526367 -430.06689453 821.32495117 C-429.7375441 820.53450912 -429.40819366 819.74406708 -429.06886292 818.92967224 C-428.4242837 817.38268414 -427.77970163 815.83569722 -427.13511658 814.28871155 C-425.5974157 810.59826425 -424.05976221 806.90779723 -422.5222168 803.21728516 C-419.82172543 796.73553034 -417.12084475 790.25393902 -414.41815186 783.77310181 C-407.58438387 767.38613441 -400.76530388 750.99321833 -393.96923828 734.59057617 C-385.24402903 713.53252995 -376.47668613 692.49212218 -367.70507812 671.45336914 C-363.93648277 662.41403626 -360.17017686 653.37374947 -356.40371704 644.33352661 C-354.32148636 639.33583664 -352.23910461 634.33820962 -350.15673828 629.34057617 C-349.32340423 627.34057647 -348.49007089 625.34057647 -347.65673828 623.34057617 C-306.40673828 524.34057617 -265.15673828 425.34057617 -183.14746094 228.51831055 C-182.83387131 227.76569443 -182.52028168 227.01307831 -182.19718933 226.23765564 C-181.58221216 224.76171246 -180.96723213 223.28577047 -180.35224915 221.80982971 C-178.85935812 218.22692641 -177.36651662 214.64400249 -175.8737793 211.06103516 C-172.79270262 203.66579547 -169.71090674 196.27085656 -166.62786865 188.87643433 C-164.94174535 184.8322935 -163.25586496 180.78805144 -161.57006836 176.74377441 C-160.71286763 174.68735359 -159.85560874 172.63095701 -158.99829102 170.57458496 C-154.1205367 158.87383125 -149.25367617 147.16871224 -144.40943909 135.45404053 C-100.25572036 28.6828668 -100.25572036 28.6828668 -56.15673828 8.34057617 C-37.90951832 0.81213894 -19.47570673 -0.1032356 0 0 Z M25.84326172 269.34057617 C25.53070686 270.21639595 25.53070686 270.21639595 25.21183777 271.10990906 C8.82866429 317.01596035 -7.59172405 362.90846941 -24.10864258 408.76660156 C-30.2770276 425.89308455 -36.43771234 443.02232733 -42.59423828 460.15307617 C-42.96117546 461.17407598 -42.96117546 461.17407598 -43.33552551 462.21570206 C-50.11777487 481.08761271 -56.89189877 499.96241654 -63.65673828 518.84057617 C-70.37159162 537.57883691 -77.09396318 556.31438553 -83.82421875 575.04711914 C-84.82033622 577.8196759 -85.81626649 580.59229977 -86.81201172 583.36499023 C-88.21156327 587.26198476 -89.61174854 591.15875125 -91.01220703 595.05541992 C-91.45221039 596.27993866 -91.89221375 597.5044574 -92.34555054 598.76608276 C-94.42141791 604.53759692 -96.5052843 610.30598047 -98.60839844 616.06762695 C-98.98563553 617.10117813 -99.36287262 618.13472931 -99.75154114 619.19960022 C-100.45382603 621.1209382 -101.15758987 623.04173649 -101.86308289 624.9618988 C-102.16793106 625.79528275 -102.47277924 626.62866669 -102.78686523 627.48730469 C-103.05320267 628.21240738 -103.3195401 628.93751007 -103.59394836 629.68458557 C-104.21036765 631.20687707 -104.21036765 631.20687707 -104.15673828 632.34057617 C-35.18673828 632.34057617 33.78326172 632.34057617 104.84326172 632.34057617 C104.17208061 626.97112727 103.40691872 621.82233993 102.26792908 616.56062317 C102.03105644 615.44650817 102.03105644 615.44650817 101.78939849 614.3098858 C101.26230796 611.83479889 100.73040016 609.36077321 100.19848633 606.88671875 C99.81587252 605.09500364 99.43355542 603.30322514 99.05150986 601.51138878 C98.00677796 596.61572532 96.95781821 591.72097617 95.90811896 586.82637572 C94.78617433 581.59141536 93.66808713 576.3556311 92.54951477 571.11994934 C90.38148496 560.97513972 88.20980695 550.83111444 86.0368579 540.68735749 C84.28574125 532.5123103 82.53618628 524.33693029 80.78771973 516.16131592 C80.54018782 515.00388878 80.29265592 513.84646163 80.03762305 512.65396094 C79.53662143 510.3113135 79.03562218 507.96866555 78.53462529 505.62601709 C61.68755254 426.8534786 44.78675529 348.09242977 27.84326172 269.34057617 C27.18326172 269.34057617 26.52326172 269.34057617 25.84326172 269.34057617 Z " fill="#1333CB" transform="translate(2713.15673828125,16.659423828125)"/>
<path d="M0 0 C55.76401951 -0.06870664 111.52803479 -0.12154937 167.29208833 -0.15319599 C173.87954007 -0.15694799 180.46699174 -0.16083097 187.05444336 -0.16479492 C188.36585458 -0.16558185 189.6772658 -0.16636878 191.02841676 -0.16717956 C212.24655148 -0.18022397 233.46466176 -0.2038725 254.68278199 -0.23145839 C276.46385157 -0.25953944 298.24490837 -0.27618197 320.02599531 -0.28226548 C333.45983169 -0.28637632 346.89359895 -0.29934765 360.32741404 -0.3237494 C369.54667857 -0.33963991 378.7659075 -0.34439286 387.98518472 -0.34050413 C393.29961241 -0.33858775 398.61391954 -0.3414701 403.92832565 -0.35761642 C408.80390965 -0.37232055 413.67929312 -0.37288483 418.55488677 -0.36269668 C420.3088829 -0.36143932 422.06289205 -0.36515525 423.81686293 -0.37464955 C457.95535917 -0.54853772 489.37304591 10.60953736 514.0625 34.6875 C535.30281931 56.01886371 542.61528684 82.86103535 548.00390625 111.54296875 C548.47290517 113.98914286 548.94295466 116.43511575 549.41395569 118.88090515 C550.55783717 124.83657116 551.69015636 130.79432787 552.8169964 136.7532329 C553.74101411 141.63771647 554.67051861 146.52112851 555.60369873 151.40386963 C555.73791933 152.10616369 555.87213994 152.80845775 556.01042783 153.53203344 C556.2840418 154.96355742 556.55766672 156.3950793 556.8313024 157.82659912 C560.07676264 174.80995033 563.29620162 191.79820721 566.51247132 208.78710604 C568.31365404 218.30066083 570.11769492 227.81367341 571.921875 237.32666016 C572.08901261 238.20794618 572.25615021 239.0892322 572.42835259 239.99722385 C573.10656671 243.57329431 573.78479145 247.14936274 574.46305001 250.72542477 C575.48652305 256.12161868 576.50982466 261.51784508 577.53299773 266.91409588 C581.96133468 290.26883506 586.3982666 313.62191867 590.84765625 336.97265625 C590.98489483 337.69291347 591.12213341 338.41317069 591.26353073 339.15525389 C593.47988907 350.78695055 595.6972065 362.41846435 597.91463375 374.04995728 C600.04644888 385.23242926 602.17787556 396.41497519 604.30859375 407.59765625 C604.52719559 408.74492148 604.52719559 408.74492148 604.75021362 409.91536379 C610.10481647 438.01836992 615.44336336 466.12441582 620.77804947 494.2312088 C622.09288777 501.15862955 623.40798068 508.08600195 624.72311401 515.0133667 C625.59796946 519.62170258 626.47281413 524.2300405 627.34765625 528.83837891 C627.56399287 529.97794446 627.78032948 531.11751001 628.00322175 532.29160786 C630.59377735 545.93774161 633.1832062 559.58408822 635.77092463 573.23076028 C637.3978584 581.81019773 639.02595721 590.38941359 640.65491956 598.9684661 C641.60331781 603.96355224 642.55114111 608.95874579 643.49748421 613.95422173 C644.37316975 618.57670718 645.25039603 623.1988976 646.12878704 627.82086968 C646.44616513 629.49234327 646.76298955 631.16392212 647.07918072 632.83562064 C648.92407994 642.58767968 650.86820917 652.30573854 653 662 C663.4414952 635.99262577 673.88048865 609.98531781 684.0625 583.875 C690.51307108 567.33437964 697.01625815 550.81550624 703.5625 534.3125 C704.00614899 533.19399658 704.44979797 532.07549316 704.90689087 530.9230957 C706.67297676 526.47081489 708.43921361 522.01859403 710.20576477 517.5664978 C714.39564813 507.0060116 718.57437651 496.44113124 722.75 485.875 C723.44132324 484.12581316 724.1326481 482.37662696 724.82397461 480.62744141 C725.85138536 478.02782811 726.87876792 475.42820369 727.90608215 472.82855225 C730.37149143 466.5898151 732.83786273 460.35145883 735.3046875 454.11328125 C742.04121828 437.07739745 748.77520548 420.0405204 755.5 403 C760.78717324 389.60238863 766.07910274 376.20666535 771.375 362.8125 C771.90525787 361.47138657 771.90525787 361.47138657 772.44622803 360.10317993 C775.32505505 352.8222551 778.20414864 345.54143569 781.08325195 338.26062012 C783.59729166 331.90296232 786.11122746 325.54526344 788.625 319.1875 C788.97866638 318.29302155 789.33233276 317.39854309 789.69671631 316.47695923 C794.63522278 303.98624774 799.5694772 291.49386491 804.5 279 C811.93942228 260.14862442 819.39039686 241.30182397 826.84277344 222.45556641 C828.98134275 217.04728866 831.11962508 211.63889749 833.2578125 206.23046875 C833.60803467 205.34460083 833.95825684 204.45873291 834.3190918 203.54602051 C835.37939945 200.86401562 836.43970096 198.1820083 837.5 195.5 C841.41267631 185.60295219 845.325364 175.70590894 849.23883057 165.80917358 C856.33066459 147.87466617 863.42048569 129.9393746 870.5 112 C876.49173783 96.81703337 882.48948883 81.63645144 888.49267578 66.45800781 C891.84953774 57.97027138 895.20516897 49.4820574 898.55551147 40.991745 C900.11847325 37.03111176 901.68216885 33.07076843 903.24591064 29.11044312 C903.99135236 27.2219357 904.73643609 25.33328695 905.48114014 23.44448853 C906.51515223 20.82200303 907.55041607 18.20001481 908.5859375 15.578125 C908.88830322 14.81028183 909.19066895 14.04243866 909.50219727 13.25132751 C909.78812744 12.52804764 910.07405762 11.80476776 910.36865234 11.05957031 C910.73475113 10.13159637 910.73475113 10.13159637 911.10824585 9.18487549 C912.3647596 6.10630715 913.69017185 3.05626569 915 0 C1003.11 0 1091.22 0 1182 0 C1175.12090144 18.34426283 1175.12090144 18.34426283 1172.29296875 24.87109375 C1171.97065277 25.62405731 1171.64833679 26.37702087 1171.31625366 27.15280151 C1170.63081128 28.75373466 1169.94392729 30.3540513 1169.25564575 31.95376587 C1167.37250884 36.33257972 1165.50265157 40.71705719 1163.6328125 45.1015625 C1163.24728714 46.00524063 1162.86176178 46.90891876 1162.46455383 47.83998108 C1158.43327435 57.30440099 1154.49129328 66.80517777 1150.5625 76.3125 C1149.14611548 79.73839798 1147.72945558 83.16418193 1146.3125 86.58984375 C1145.95936737 87.44363113 1145.60623474 88.29741852 1145.24240112 89.17707825 C1141.20938952 98.92099328 1137.13777359 108.64870094 1133.0625 118.375 C1132.68956818 119.26514801 1132.31663635 120.15529602 1131.93240356 121.07241821 C1130.04405744 125.57937826 1128.15521145 130.08612857 1126.26611328 134.59277344 C1122.88267926 142.66501071 1119.50377985 150.73914623 1116.12454224 158.81314087 C1114.24720302 163.29865136 1112.36972897 167.78410541 1110.4921875 172.26953125 C1110.12051956 173.15744858 1109.74885162 174.04536591 1109.36592102 174.96018982 C1107.13683606 180.28517739 1104.90692308 185.60981734 1102.67633057 190.93417358 C1094.43139295 210.61469089 1086.2027263 230.30184814 1078 250 C1069.4305292 270.57885769 1060.83138056 291.14514909 1052.21777344 311.70556641 C1048.85247992 319.73881778 1045.48986792 327.77319169 1042.12701416 335.8074646 C1040.25144886 340.28835414 1038.37571609 344.76917358 1036.5 349.25 C1035.74999919 351.04166633 1034.99999919 352.833333 1034.25 354.625 C1032.75 358.20833333 1031.25 361.79166667 1029.75 365.375 C1029.37873993 366.26190018 1029.00747986 367.14880035 1028.62496948 368.06257629 C1027.87507443 369.85399 1027.12517615 371.64540235 1026.37527466 373.43681335 C1024.49864256 377.91983933 1022.62206666 382.40288881 1020.74560547 386.88598633 C1017.39014201 394.90245176 1014.03431624 402.91876428 1010.67633057 410.93417358 C1002.43139295 430.61469089 994.2027263 450.30184814 986 470 C977.4305292 490.57885769 968.83138056 511.14514909 960.21777344 531.70556641 C956.85247992 539.73881778 953.48986792 547.77319169 950.12701416 555.8074646 C948.25144886 560.28835414 946.37571609 564.76917358 944.5 569.25 C943.74999919 571.04166633 942.99999919 572.833333 942.25 574.625 C940.75 578.20833333 939.25 581.79166667 937.75 585.375 C937.37873993 586.26190018 937.00747986 587.14880035 936.62496948 588.06257629 C935.87507443 589.85399 935.12517615 591.64540235 934.37527466 593.43681335 C932.49864256 597.91983933 930.62206666 602.40288881 928.74560547 606.88598633 C925.39014201 614.90245176 922.03431624 622.91876428 918.67633057 630.93417358 C910.43139295 650.61469089 902.2027263 670.30184814 894 690 C885.4305292 710.57885769 876.83138056 731.14514909 868.21777344 751.70556641 C864.85247992 759.73881778 861.48986792 767.77319169 858.12701416 775.8074646 C856.25144886 780.28835414 854.37571609 784.76917358 852.5 789.25 C851.74999919 791.04166633 850.99999919 792.833333 850.25 794.625 C848.75 798.20833333 847.25 801.79166667 845.75 805.375 C845.37873993 806.26190018 845.00747986 807.14880035 844.62496948 808.06257629 C843.87507443 809.85399 843.12517615 811.64540235 842.37527466 813.43681335 C840.49864256 817.91983933 838.62206666 822.40288881 836.74560547 826.88598633 C833.39014201 834.90245176 830.03431624 842.91876428 826.67633057 850.93417358 C818.85472825 869.60419717 811.0454375 888.27923398 803.2635498 906.96585083 C796.54075529 923.10922825 789.81622047 939.25188292 783.07177734 955.38623047 C782.28026939 957.28023053 781.48924576 959.17443306 780.69873047 961.06884766 C779.61039016 963.67666952 778.52028163 966.28374504 777.4296875 968.890625 C777.1098288 969.65804016 776.78997009 970.42545532 776.4604187 971.21612549 C775.06748488 974.54063774 773.61324222 977.77351555 772 981 C683.89 981 595.78 981 505 981 C500.40650596 966.07114435 500.40650596 966.07114435 498.6159668 959.01635742 C498.40796416 958.20771114 498.19996153 957.39906487 497.98565578 956.56591415 C497.30399878 953.91315305 496.62664217 951.2593138 495.94921875 948.60546875 C495.45831246 946.69242916 494.96708264 944.77947256 494.47555542 942.86659241 C493.42589224 938.77975305 492.3779262 934.69248407 491.33132935 930.6048584 C488.51271061 919.59780683 485.68196511 908.59386987 482.8515625 897.58984375 C482.56300699 896.46764057 482.27445148 895.34543739 481.97715187 894.18922806 C476.46281664 872.74732265 470.87522642 851.32507556 465.25979996 829.90945816 C456.47086953 796.38903053 447.79367782 762.8409685 439.17213821 729.27711487 C431.35155628 698.83280061 423.4702711 668.405467 415.5 638 C407.24847511 606.52158924 399.09620414 575.01871047 391 543.5 C382.88236884 511.8981298 374.70941998 480.31184386 366.4375 448.75 C358.38335516 418.01908598 350.41351672 387.26742503 342.5 356.5 C334.44856888 325.19891795 326.35255402 293.91000318 318.17703247 262.64108276 C317.45180635 259.8672193 316.72686055 257.0932827 316.00195312 254.31933594 C313.01117339 242.87695742 310.01209811 231.43678588 307 220 C306.70936047 218.8961219 306.70936047 218.8961219 306.41284943 217.76994324 C305.30397934 213.56005059 304.19204197 209.35098819 303.07557869 205.14310265 C302.58911523 203.30830775 302.10462128 201.472991 301.620224 199.63764954 C292.093969 163.84686063 277.57963722 134.87933832 244.84765625 115.5078125 C240.29489585 112.88320779 235.66303517 110.42204326 231 108 C229.89930176 107.42113037 229.89930176 107.42113037 228.77636719 106.83056641 C212.51049442 98.37588748 195.27495348 92.14870365 178.14642334 85.7023468 C173.30044793 83.87717853 168.47002133 82.01970251 163.65234375 80.12109375 C109.04057967 58.7013916 52.18903175 44.57548613 -5 32 C-4.54535388 28.72864349 -4.08557517 25.45802659 -3.625 22.1875 C-3.49867187 21.27806641 -3.37234375 20.36863281 -3.2421875 19.43164062 C-3.11328125 18.51962891 -2.984375 17.60761719 -2.8515625 16.66796875 C-2.73635254 15.84578857 -2.62114258 15.0236084 -2.50244141 14.17651367 C-2.0329977 11.20861667 -1.50862401 8.25721985 -0.96859741 5.3014679 C-0.78750616 4.30919347 -0.60641491 3.31691904 -0.41983604 2.29457569 C-0.2120172 1.15876072 -0.2120172 1.15876072 0 0 Z " fill="#1333CB" transform="translate(6,17)"/>
<path d="M0 0 C1.02035339 0.00060425 2.04070679 0.0012085 3.09197998 0.00183105 C81.39023482 0.1266334 159.47803529 13.23311378 243.375 43.1875 C242.74091796 49.9152843 241.59812245 56.37573095 240.14453125 62.97119141 C239.80441607 64.54063507 239.80441607 64.54063507 239.45742989 66.14178467 C238.70506117 69.60848878 237.94626991 73.07375432 237.1875 76.5390625 C236.6513465 79.00384601 236.11561964 81.46872235 235.58029175 83.9336853 C234.44117527 89.17494277 233.29942944 94.4156162 232.1552124 99.65576172 C230.37250131 107.8202957 228.59602737 115.98617958 226.82080078 124.15234375 C226.22673399 126.88483077 225.63264066 129.61731202 225.0385437 132.34979248 C224.81819763 133.36329808 224.81819763 133.36329808 224.59340012 134.39727855 C223.55391567 139.17818639 222.5135845 143.95890951 221.47293091 148.73956299 C216.54725382 171.36976768 211.65925292 194.00796755 206.79486084 216.65142059 C206.07120696 220.01970028 205.34713274 223.38788955 204.62307549 226.75608253 C202.87250513 234.8996283 201.12309187 243.0434218 199.375 251.1875 C195.45458634 250.57710715 192.17302756 249.84878557 188.56640625 248.18359375 C187.66712402 247.77681396 186.7678418 247.37003418 185.84130859 246.95092773 C184.88305176 246.51337158 183.92479492 246.07581543 182.9375 245.625 C171.28726116 240.44721882 159.49453605 236.12611343 147.375 232.1875 C146.25851074 231.82269531 145.14202148 231.45789063 143.99169922 231.08203125 C95.53116831 215.35567316 46.12778265 205.9650979 -4.875 205.9375 C-5.99338257 205.93682526 -7.11176514 205.93615051 -8.26403809 205.93545532 C-24.23217906 205.95077791 -39.89568431 206.14577335 -55.625 209.1875 C-56.56005371 209.36442383 -57.49510742 209.54134766 -58.45849609 209.72363281 C-82.02196069 214.32273815 -105.16014407 221.74671831 -124.625 236.1875 C-125.56988281 236.88617188 -126.51476563 237.58484375 -127.48828125 238.3046875 C-136.91444578 245.63180295 -144.49762294 254.36303732 -149.625 265.1875 C-149.99367188 265.94289063 -150.36234375 266.69828125 -150.7421875 267.4765625 C-156.79538903 281.04103599 -156.7929562 295.42924593 -151.5625 309.25 C-147.27152596 318.73330653 -141.15840988 327.04041883 -133.625 334.1875 C-133.625 334.8475 -133.625 335.5075 -133.625 336.1875 C-133.05136719 336.43757813 -132.47773437 336.68765625 -131.88671875 336.9453125 C-129.30916526 338.36096364 -127.55239766 340.01872279 -125.4375 342.0625 C-97.04445793 368.00284883 -59.23331172 384.66083056 -25.5390625 402.4609375 C-9.76133204 410.80020345 5.91901917 419.26010096 21.375 428.1875 C22.1376416 428.62610352 22.9002832 429.06470703 23.68603516 429.51660156 C46.07123646 442.4141993 67.93017694 456.36907999 88.375 472.1875 C89.50253284 473.04566664 90.63014046 473.90373504 91.7578125 474.76171875 C99.00885972 480.32342518 105.82225636 486.20333004 112.47265625 492.46875 C114.83679532 494.68334056 117.22944932 496.82923041 119.6875 498.9375 C126.47840137 504.8296056 132.59692002 511.30986002 138.375 518.1875 C138.83003906 518.72342773 139.28507812 519.25935547 139.75390625 519.81152344 C185.27856437 573.63191529 200.90041145 637.8308826 195.87109375 707.265625 C188.96778522 784.42086786 153.17359788 857.01063687 94.3671875 907.8515625 C91.73717768 910.01052579 89.06142893 912.09932546 86.375 914.1875 C85.31875805 915.06427847 84.26554623 915.94471578 83.21484375 916.828125 C66.34230773 930.89096495 47.58328303 942.6017312 28.375 953.1875 C27.28203613 953.80069092 27.28203613 953.80069092 26.16699219 954.42626953 C-39.322849 991.05593502 -117.19383992 1007.76782826 -191.625 1012.1875 C-192.29501038 1012.22880035 -192.96502075 1012.27010071 -193.65533447 1012.31265259 C-207.64722836 1013.15902697 -221.60944825 1013.39071491 -235.625 1013.375 C-236.71615112 1013.37406342 -237.80730225 1013.37312683 -238.93151855 1013.37216187 C-322.00003169 1013.21884597 -405.29386224 999.82457753 -523.625 959.1875 C-523.09499932 950.98245561 -521.73220022 943.14389023 -519.97973633 935.11865234 C-519.70947128 933.8559552 -519.43920624 932.59325806 -519.16075134 931.29229736 C-518.42190919 927.84114199 -517.6750785 924.39176001 -516.92677522 920.94264555 C-516.12782169 917.2531965 -515.33641682 913.56212802 -514.54411316 909.87124634 C-513.02899878 902.8186806 -511.50725202 895.76756325 -509.98308915 888.71694815 C-508.30488805 880.95234105 -506.63377497 873.18621544 -504.96346307 865.41990805 C-502.00970372 851.68691684 -499.04953159 837.9553164 -496.08569741 824.22449636 C-492.57832593 807.9753591 -489.07761276 791.72479078 -485.57825279 775.47392654 C-484.65177867 771.17142932 -483.72517638 766.8689597 -482.79853821 762.5664978 C-481.40730226 756.10684405 -480.01612463 749.64717773 -478.625 743.1875 C-474.97468775 744.62310674 -471.51374146 746.21513107 -468.03125 748.0234375 C-398.48507704 783.73854504 -319.9826817 805.26461211 -241.625 807.1875 C-240.73393555 807.20941406 -239.84287109 807.23132813 -238.92480469 807.25390625 C-188.22374175 808.28897388 -132.55926887 800.3038706 -93.96484375 764.453125 C-79.05381584 750.01506793 -69.80683288 731.83041552 -69.3125 710.875 C-69.66482224 692.36881067 -77.09479007 676.61136679 -89.625 663.1875 C-90.10114746 662.66510742 -90.57729492 662.14271484 -91.06787109 661.60449219 C-118.48304684 631.74293207 -157.38012809 613.03601532 -192.625 594.1875 C-208.06707116 585.92395605 -223.44914518 577.58431146 -238.65185547 568.88671875 C-241.78646365 567.0952199 -244.92649056 565.31342769 -248.06640625 563.53125 C-279.02250293 545.89501748 -308.65907342 526.53747933 -335.625 503.1875 C-336.40746094 502.51847656 -337.18992187 501.84945313 -337.99609375 501.16015625 C-351.22222841 489.58442314 -364.00538675 477.10448573 -374.37890625 462.88232422 C-375.67441202 461.12029423 -377.00524064 459.38969615 -378.34375 457.66015625 C-396.74560354 433.63102236 -409.08753416 405.67749083 -415.375 376.125 C-415.57383789 375.19260498 -415.77267578 374.26020996 -415.97753906 373.29956055 C-419.08768639 357.81417434 -420.00442569 342.56884848 -419.9375 326.8125 C-419.93426727 325.43537338 -419.93426727 325.43537338 -419.93096924 324.03042603 C-419.68373758 258.08888298 -398.45499945 194.52127532 -356.625 143.1875 C-355.40103516 141.65802734 -355.40103516 141.65802734 -354.15234375 140.09765625 C-347.59282983 132.07818782 -340.36162587 124.71446874 -333.0625 117.375 C-332.33832382 116.64292328 -332.33832382 116.64292328 -331.59951782 115.89605713 C-324.95617575 109.19674887 -318.02962874 103.03762798 -310.625 97.1875 C-309.18879922 96.0260452 -307.7526011 94.86458712 -306.31640625 93.703125 C-289.78693285 80.55112983 -272.07572575 69.43446994 -253.625 59.1875 C-252.87460449 58.76903809 -252.12420898 58.35057617 -251.35107422 57.91943359 C-183.043632 20.11507721 -102.80702955 3.32934391 0 0 Z " fill="#1333CB" transform="translate(2034.625,0.8125)"/>
<path d="M0 0 C83.82 0 167.64 0 254 0 C248.25664235 29.86545976 248.25664235 29.86545976 246.13867188 39.81274414 C245.89126283 40.98457591 245.64385378 42.15640768 245.38894749 43.3637495 C244.58446309 47.17136462 243.77664081 50.97826259 242.96875 54.78515625 C242.38286164 57.55342749 241.79770179 60.32185261 241.21250916 63.090271 C239.96385626 68.99553886 238.71348865 74.9004414 237.46188354 80.80508423 C235.63023327 89.44620909 233.80134905 98.08791773 231.97305334 106.7297529 C229.02047082 120.68545402 226.06586232 134.6407253 223.10986328 148.59570312 C219.56790071 165.31700596 216.02841538 182.03883197 212.49012375 198.76091194 C210.99417795 205.83078446 209.4980907 212.90062705 208.00195312 219.97045898 C207.85488002 220.66543735 207.70780691 221.36041572 207.55627704 222.07645404 C204.11030996 238.35981239 200.66267953 254.64281849 197.21484375 270.92578125 C196.99153421 271.98039767 196.99153421 271.98039767 196.76371336 273.05631948 C196.46317999 274.47563802 196.16264658 275.89495656 195.86211312 277.31427509 C195.11103426 280.86137147 194.35995872 284.40846857 193.60888672 287.95556641 C193.46013745 288.65806593 193.31138818 289.36056546 193.15813136 290.08435285 C189.68939938 306.46625242 186.22157058 322.84834315 182.75390625 339.23046875 C182.60431733 339.93716336 182.45472841 340.64385796 182.30060649 341.37196755 C180.94051292 347.79738458 179.58042789 354.22280342 178.22035503 360.64822483 C176.10519932 370.64089944 173.98999604 380.63356397 171.87475586 390.6262207 C171.72523189 391.33259056 171.57570791 392.03896043 171.42165291 392.76673543 C170.66649829 396.33417867 169.91134286 399.90162173 169.15618706 403.46906471 C167.79682972 409.89082727 166.43747962 416.31259136 165.07812893 422.73435533 C164.32291958 426.30207028 163.56770977 429.86978514 162.8125 433.4375 C162.51041666 434.86458333 162.20833333 436.29166667 161.90625 437.71875 C131.09374687 583.28126479 131.09374687 583.28126479 130.64062512 585.4218744 C130.33854137 586.84895972 130.03645764 588.27604504 129.73437393 589.70313036 C128.97917209 593.27080839 128.22396995 596.83848635 127.46876717 600.40616417 C126.10931425 606.82840104 124.7498635 613.25063836 123.39042437 619.67287815 C122.63512169 623.24106622 121.87981719 626.80925392 121.12451172 630.37744141 C120.97496528 631.08392358 120.82541885 631.79040576 120.6713407 632.51829648 C118.55829602 642.5006524 116.44514907 652.48298667 114.33193851 662.46530747 C112.97387355 668.88051262 111.61583859 675.29572412 110.2578125 681.7109375 C110.10840666 682.41671669 109.95900083 683.12249587 109.80506754 683.8496623 C106.31672976 700.32829407 102.82896875 716.80704764 99.34277344 733.28613281 C99.19172024 734.000154 99.04066704 734.7141752 98.88503647 735.44983339 C98.12193432 739.05699565 97.35884074 742.66415972 96.5957489 746.27132416 C90.88229081 773.2789938 85.16609319 800.28608155 79.44519043 827.29217529 C78.99762029 829.40499232 78.55005116 831.51780955 78.10248375 833.63062716 C77.80290155 835.0448539 77.50331684 836.45908011 77.20372963 837.8733058 C75.00466305 848.25435837 72.80717494 858.63574421 70.61051631 869.01730657 C67.57272668 883.37407454 64.53232188 897.73028494 61.48779869 912.0856266 C59.82686058 919.917557 58.16804803 927.74993083 56.51213133 935.58292449 C55.2645158 941.48335237 54.01295734 947.38293646 52.75984573 953.28219986 C52.24645743 955.70213429 51.7343715 958.12234542 51.22364426 960.54284286 C50.52982919 963.8300877 49.83144771 967.11632855 49.13183594 970.40234375 C48.92844793 971.37140718 48.72505993 972.34047062 48.51550865 973.33889961 C48.32893511 974.21053686 48.14236156 975.08217411 47.95013428 975.98022461 C47.78961452 976.73790634 47.62909477 977.49558807 47.46371078 978.27622986 C47 980 47 980 46 981 C44.63950734 981.09639773 43.27404339 981.12371937 41.91014004 981.12304783 C41.02336651 981.12503888 40.13659299 981.12702993 39.22294754 981.12908131 C38.23755951 981.12616847 37.25217149 981.12325563 36.23692322 981.12025452 C35.19884649 981.12110894 34.16076977 981.12196337 33.09123617 981.12284368 C29.58416313 981.12450159 26.07713706 981.11897205 22.57006836 981.11352539 C20.06748964 981.11324356 17.56491083 981.11340117 15.06233215 981.1139679 C9.65971711 981.11419622 4.25711742 981.11134476 -1.14549446 981.10573006 C-8.95684798 981.09761732 -16.76819566 981.09500007 -24.57955294 981.09374207 C-37.25168769 981.09155119 -49.92381601 981.08489014 -62.59594727 981.07543945 C-74.90877246 981.06626626 -87.22159591 981.05918497 -99.53442383 981.05493164 C-100.29285798 981.05466892 -101.05129213 981.05440619 -101.83270914 981.05413551 C-105.63739259 981.05283051 -109.44207606 981.05156679 -113.24675953 981.05032361 C-144.83117769 981.03994988 -176.41558787 981.02225648 -208 981 C-207.21425489 977.05878894 -206.42753447 973.11777315 -205.64065552 969.17678833 C-205.42103559 968.07513745 -205.20141565 966.97348658 -204.97514057 965.83845234 C-202.86416289 955.27035806 -200.65915881 944.7233073 -198.4296875 934.1796875 C-197.99601138 932.12407856 -197.56243107 930.06844941 -197.12893677 928.01280212 C-195.95860961 922.46513391 -194.78646282 916.9178517 -193.61383057 911.37067032 C-192.8632676 907.81948982 -192.11320307 904.26820437 -191.36328125 900.71688843 C-181.58363087 854.4066893 -171.7441915 808.10922256 -161.89437866 761.81390381 C-161.75149827 761.14234835 -161.60861788 760.47079289 -161.46140778 759.77888727 C-160.73495146 756.36446275 -160.00848417 752.95004056 -159.2820015 749.53562164 C-154.63072127 727.67459004 -149.98533508 705.81231084 -145.34375 683.94921875 C-145.18308359 683.19244095 -145.02241718 682.43566315 -144.8568821 681.65595269 C-142.89722974 672.42544165 -140.93776448 663.19489091 -138.97835875 653.96432751 C-135.86087975 639.27823645 -132.74306611 624.59221642 -129.625 609.90625 C-129.3832583 608.76765113 -129.3832583 608.76765113 -129.13663292 607.60605025 C-121.99002136 573.94590375 -114.83438575 540.28767917 -107.67700195 506.62982178 C-105.74288035 497.53449023 -103.80884294 488.43914079 -101.875 479.34375 C-101.73706528 478.69500538 -101.59913055 478.04626076 -101.45701599 477.37785721 C-96.75950932 455.28389811 -92.06614979 433.18905967 -87.375 411.09375 C-87.21387222 410.33483837 -87.05274445 409.57592674 -86.88673401 408.79401779 C-84.42433562 397.19604449 -81.96215115 385.59802579 -79.5 374 C-72.04534037 338.88463567 -64.59064785 303.76928016 -57.125 268.65625 C-56.91780795 267.68176607 -56.91780795 267.68176607 -56.7064302 266.68759561 C-54.096124 254.41067873 -51.48542371 242.13384565 -48.87466431 229.85702515 C-42.12352179 198.11020494 -35.37702957 166.36240292 -28.63671875 134.61328125 C-28.28018866 132.93393317 -27.92365816 131.25458518 -27.56712723 129.57523727 C-24.26259517 114.00999841 -20.95828193 98.44471312 -17.65485638 82.87923938 C-16.36499149 76.80153825 -15.07494879 70.72387488 -13.78478557 64.64623708 C-12.90072345 60.48157518 -12.01688834 56.3168652 -11.13325584 52.15211213 C-10.45518719 48.95658591 -9.77675691 45.76113646 -9.09838867 42.56567383 C-8.87243767 41.50033669 -8.64648666 40.43499954 -8.41368866 39.33737946 C-5.62834351 26.22077075 -2.80960819 13.11150487 0 0 Z " fill="#1333CB" transform="translate(1293,17)"/>
</svg>
