<svg xmlns="http://www.w3.org/2000/svg" viewBox="0 0 420 150" role="img" aria-label="KUKA HOME logo">
  <rect width="420" height="150" rx="24" fill="#e30613"/>
  <g fill="#f2f0eb">
    <path d="M41 33h13v41l40-41h18L65 79l51 38H97L54 84v33H41z"/>
    <path d="M125 33h13v51c0 15 9 24 26 24s26-9 26-24V33h13v51c0 23-15 36-39 36s-39-13-39-36z"/>
    <path d="M219 33h13v41l40-41h18l-47 46 51 38h-19l-43-33v33h-13z"/>
    <path d="M335 31c30 0 52 20 52 45v41h-13V99c-8 13-23 21-41 21-29 0-50-19-50-45 0-25 21-44 52-44zm0 12c-22 0-38 14-38 32s16 33 38 33c23 0 39-15 39-33s-16-32-39-32z"/>
    <g transform="translate(145 102) scale(.82)">
      <path d="M0 0h9v31h27V0h9v71h-9V39H9v32H0z"/>
      <path d="M126 36c0 22-17 38-40 38S46 58 46 36 63-2 86-2s40 16 40 38zm-9 0c0-17-13-30-31-30S55 19 55 36s13 30 31 30 31-13 31-30z"/>
      <path d="M138 0h9l27 36L201 0h9v71h-9V14l-27 35-27-35v57h-9z"/>
      <path d="M224 0h42v8h-33v23h30v8h-30v24h34v8h-43z"/>
    </g>
  </g>
</svg>
