<?xml version="1.0" encoding="UTF-8"?>
<svg version="1.1" xmlns="http://www.w3.org/2000/svg" width="2630" height="2629">
<path d="M0 0 C867.9 0 1735.8 0 2630 0 C2630 867.57 2630 1735.14 2630 2629 C1762.1 2629 894.2 2629 0 2629 C0 1761.43 0 893.86 0 0 Z " fill="#E60012" transform="translate(0,0)"/>
<path d="M0 0 C1.46667618 -0.00299103 1.46667618 -0.00299103 2.96298218 -0.00604248 C19.82075779 -0.00214894 36.21962585 1.20104918 52.75 4.625 C53.80703125 4.84260986 54.8640625 5.06021973 55.953125 5.28442383 C97.15827181 13.99970811 134.70910829 31.93013181 167.4375 58.375 C168.03868652 58.85904297 168.63987305 59.34308594 169.25927734 59.84179688 C180.75601944 69.18269962 192.53565069 79.50586759 201.4375 91.375 C201.7675 63.985 202.0975 36.595 202.4375 8.375 C226.8575 8.375 251.2775 8.375 276.4375 8.375 C276.4375 177.005 276.4375 345.635 276.4375 519.375 C252.0175 519.375 227.5975 519.375 202.4375 519.375 C201.9425 478.29 201.9425 478.29 201.4375 436.375 C198.4675 439.675 195.4975 442.975 192.4375 446.375 C183.89580689 455.27607942 175.28535492 463.91070232 165.4375 471.375 C164.78507324 471.88208496 164.13264648 472.38916992 163.46044922 472.91162109 C151.40066354 482.2686769 138.93876257 490.26100024 125.4375 497.375 C124.50260742 497.87241699 123.56771484 498.36983398 122.60449219 498.88232422 C98.31098224 511.64400098 71.55878246 520.96737824 44.4375 525.375 C43.46989746 525.53436035 42.50229492 525.6937207 41.50537109 525.85791016 C14.85389764 530.03524361 -12.99927664 530.1024308 -39.5625 525.375 C-40.60696289 525.19807617 -41.65142578 525.02115234 -42.72753906 524.83886719 C-60.79191297 521.75444593 -78.73837554 517.82746402 -95.5625 510.375 C-96.84741815 509.82886655 -98.13260107 509.28335585 -99.41796875 508.73828125 C-139.77790393 491.42563565 -177.54034207 465.43348742 -204.5625 430.375 C-205.35914063 429.37210938 -206.15578125 428.36921875 -206.9765625 427.3359375 C-243.60388841 380.9831546 -263.11593521 323.82562047 -262.875 264.875 C-262.87350952 263.96556641 -262.87201904 263.05613281 -262.8704834 262.11914062 C-262.80724525 240.53888744 -261.22332445 219.28044799 -255.5625 198.375 C-255.35254395 197.59141113 -255.14258789 196.80782227 -254.92626953 196.00048828 C-244.83030066 158.98193576 -227.10788822 124.84706112 -202.5625 95.375 C-202.12711914 94.84938477 -201.69173828 94.32376953 -201.24316406 93.78222656 C-191.76555509 82.37917335 -181.88731097 71.72695423 -170.23828125 62.5 C-168.5217491 61.13679783 -166.82880131 59.74303767 -165.16796875 58.3125 C-150.80762256 46.01009319 -134.33321507 36.02450883 -117.5625 27.375 C-116.89395996 27.02775879 -116.22541992 26.68051758 -115.53662109 26.32275391 C-95.04002981 15.81592913 -73.08332816 8.93542375 -50.5625 4.375 C-49.57813965 4.16472168 -48.5937793 3.95444336 -47.57958984 3.73779297 C-31.74234981 0.45386026 -16.11413332 0.00868539 0 0 Z " fill="#FEFEFE" transform="translate(2089.5625,902.625)"/>
<path d="M0 0 C1.14009521 0.19287598 1.14009521 0.19287598 2.30322266 0.38964844 C48.56004864 8.39975314 92.90505692 37.82614797 120 76 C135.69336602 98.57279863 146.9981487 122.56552354 152.51513672 149.63134766 C152.83677972 151.20263687 153.1768146 152.77027983 153.53564453 154.33349609 C160.23136645 184.57204155 156.95836735 218.86613564 147 248 C146.69449219 248.9384375 146.38898437 249.876875 146.07421875 250.84375 C137.22014414 276.74289334 122.97037596 300.27202116 104 320 C103.51370117 320.51739746 103.02740234 321.03479492 102.52636719 321.56787109 C85.56306295 339.56349874 65.95688547 352.51329208 43.76171875 363.14941406 C42.24846531 363.88003698 40.74785488 364.63674425 39.25 365.3984375 C-1.18770195 385.23818502 -53.93559639 384.74353987 -96 371 C-133.30876123 357.81317942 -166.67197442 334.10351354 -190 302 C-190.41846191 301.42588379 -190.83692383 300.85176758 -191.26806641 300.26025391 C-201.60909668 285.87641741 -210.38766574 269.81724105 -216 253 C-216.23525391 252.3395166 -216.47050781 251.6790332 -216.71289062 250.99853516 C-221.48658039 237.59292661 -224.07859877 224.08114478 -226 210 C-226.15577515 208.88588745 -226.15577515 208.88588745 -226.31469727 207.74926758 C-228.80616802 188.05745417 -227.15268527 168.3132281 -223 149 C-222.81808105 148.12408203 -222.63616211 147.24816406 -222.44873047 146.34570312 C-216.90489502 120.1673059 -205.42500826 95.13755257 -189 74 C-188.33484375 73.12472656 -187.6696875 72.24945312 -186.984375 71.34765625 C-169.58587884 48.96300571 -148.25065621 30.94699252 -123 18 C-122.33709961 17.65630371 -121.67419922 17.31260742 -120.99121094 16.95849609 C-103.6287822 8.06014697 -85.21592947 2.25212222 -66 -1 C-65.32646484 -1.11714355 -64.65292969 -1.23428711 -63.95898438 -1.35498047 C-42.83434379 -4.8705302 -20.99031903 -3.77419291 0 0 Z " fill="#E60012" transform="translate(2126,978)"/>
<path d="M0 0 C25.74 0 51.48 0 78 0 C78.33 87.45 78.66 174.9 79 265 C92.81508222 251.29477615 92.81508222 251.29477615 106 237 C108.48186773 234.4764202 110.97352139 231.97733917 113.5 229.5 C117.86747515 225.17908303 122.1063392 220.85299477 126.06640625 216.15234375 C129.50957087 212.31964939 133.22814967 208.7535319 136.88916016 205.13037109 C139.84893732 202.18951128 142.74711363 199.25602356 145.4375 196.0625 C149.50074465 191.25103638 154.05826003 186.91823345 158.52880859 182.49072266 C162.2097669 178.83169113 165.72158663 175.12268808 169.06640625 171.15234375 C172.50888068 167.32041767 176.22666402 163.75498084 179.88696289 160.13256836 C182.86817318 157.17043018 185.7857078 154.21283566 188.5 151 C191.78396954 147.11285239 195.38613844 143.57645583 199 140 C204.38538279 134.6879844 204.38538279 134.6879844 209.4375 129.0625 C213.50074465 124.25103638 218.05826003 119.91823345 222.52880859 115.49072266 C226.2097669 111.83169113 229.72158663 108.12268808 233.06640625 104.15234375 C236.50957087 100.31964939 240.22814967 96.7535319 243.88916016 93.13037109 C246.84893732 90.18951128 249.74711363 87.25602356 252.4375 84.0625 C256.50074465 79.25103638 261.05826003 74.91823345 265.52880859 70.49072266 C269.2097669 66.83169113 272.72158663 63.12268808 276.06640625 59.15234375 C279.50957087 55.31964939 283.22814967 51.7535319 286.88916016 48.13037109 C289.84893732 45.18951128 292.74711363 42.25602356 295.4375 39.0625 C299.4980857 34.25418496 304.05230149 29.9240321 308.52001953 25.49951172 C312.28238493 21.75963617 315.89079626 17.97046398 319.30859375 13.91015625 C322.35245421 10.47263255 325.6761658 7.30694394 328.9609375 4.1015625 C331.04126091 2.16903954 331.04126091 2.16903954 332 0 C367.31 0 402.62 0 439 0 C432.26175366 7.8612874 432.26175366 7.8612874 429.37890625 10.68359375 C428.75306641 11.30169922 428.12722656 11.91980469 427.48242188 12.55664062 C426.20641994 13.80668118 424.93037852 15.05668143 423.65429688 16.30664062 C420.51792605 19.40433062 417.49302099 22.53319026 414.62109375 25.87890625 C409.74005362 31.54036321 404.35131488 36.69372959 399.02734375 41.93359375 C394.7652762 46.1546141 390.69341441 50.43968391 386.78710938 54.99023438 C382.64943836 59.6434185 378.10991768 63.92548362 373.671875 68.2890625 C370.16907073 71.75612387 366.74236279 75.22804602 363.53125 78.96875 C358.68703971 84.60544631 353.32068928 89.72387138 348.02734375 94.93359375 C344.39660828 98.52936227 340.82942643 102.12146956 337.5 106 C332.66867614 111.62812757 327.31002622 116.73436598 322.02734375 121.93359375 C318.39660828 125.52936227 314.82942643 129.12146956 311.5 133 C306.66867614 138.62812757 301.31002622 143.73436598 296.02734375 148.93359375 C292.39660828 152.52936227 288.82942643 156.12146956 285.5 160 C280.66867614 165.62812757 275.31002622 170.73436598 270.02734375 175.93359375 C265.7652762 180.1546141 261.69341441 184.43968391 257.78710938 188.99023438 C253.64943836 193.6434185 249.10991768 197.92548362 244.671875 202.2890625 C240.48375653 206.43444507 236.48832891 210.65619454 232.64794922 215.125 C230.08040191 218.04629827 227.33400639 220.77370012 224.5625 223.5 C224.02173828 224.03625 223.48097656 224.5725 222.92382812 225.125 C221.61823383 226.41904036 220.30947004 227.70988174 219 229 C222.88420646 234.45312123 227.12926951 239.42447737 231.64453125 244.36328125 C234.01374688 247.0153883 236.26483641 249.73432638 238.5 252.5 C242.11149134 256.96420457 245.88660694 261.23002114 249.75390625 265.47265625 C252.06187598 268.06962393 254.25555863 270.73404013 256.4375 273.4375 C259.51336588 277.24087503 262.68753166 280.90082652 266 284.5 C270.11378909 288.9698512 273.97087297 293.59044893 277.78515625 298.31640625 C279.95632827 300.94708557 282.20241357 303.47942424 284.5 306 C287.59555196 309.39598682 290.55151207 312.86171531 293.4375 316.4375 C296.51336588 320.24087503 299.68753166 323.90082652 303 327.5 C307.11378909 331.9698512 310.97087297 336.59044893 314.78515625 341.31640625 C316.95632827 343.94708557 319.20241357 346.47942424 321.5 349 C324.59555196 352.39598682 327.55151207 355.86171531 330.4375 359.4375 C333.51336588 363.24087503 336.68753166 366.90082652 340 370.5 C344.11378909 374.9698512 347.97087297 379.59044893 351.78515625 384.31640625 C353.95632827 386.94708557 356.20241357 389.47942424 358.5 392 C361.59555196 395.39598682 364.55151207 398.86171531 367.4375 402.4375 C370.51336588 406.24087503 373.68753166 409.90082652 377 413.5 C381.11378909 417.9698512 384.97087297 422.59044893 388.78515625 427.31640625 C390.95632827 429.94708557 393.20241357 432.47942424 395.5 435 C398.59555196 438.39598682 401.55151207 441.86171531 404.4375 445.4375 C407.51336588 449.24087503 410.68753166 452.90082652 414 456.5 C418.11378909 460.9698512 421.97087297 465.59044893 425.78515625 470.31640625 C427.95632827 472.94708557 430.20241357 475.47942424 432.5 478 C436.39135559 482.26902615 440.0330911 486.69741516 443.66015625 491.19140625 C446.90992092 495.09220892 450.35866766 498.79413862 453.8359375 502.4921875 C455.90239701 504.88689329 457.41314516 507.27537876 459 510 C445.98713774 510.25523876 432.9748739 510.45050554 419.9600153 510.56993389 C413.91604564 510.62726479 407.87379234 510.70497814 401.83081055 510.82983398 C395.9951291 510.94964761 390.16109462 511.01518557 384.32427788 511.04364967 C382.10137441 511.06392407 379.87855791 511.10351917 377.65635872 511.16303062 C359.30533916 511.6347854 359.30533916 511.6347854 354.69235229 507.60977173 C352.40436017 504.83796978 350.69927154 502.15607176 349 499 C347.97228591 497.7212467 346.91712271 496.46293649 345.8125 495.25 C345.34658447 494.71060791 344.88066895 494.17121582 344.40063477 493.61547852 C343.93842529 493.08237061 343.47621582 492.5492627 343 492 C339.46277274 487.89869664 335.97132773 483.77193314 332.5625 479.5625 C328.96363971 475.12760683 325.25267936 470.80432214 321.5 466.5 C317.00496923 461.344201 312.61376949 456.12489333 308.30859375 450.80859375 C305.58656003 447.49701634 302.79863676 444.24683884 300 441 C296.46394774 436.89764847 292.97136829 432.77198323 289.5625 428.5625 C285.96363971 424.12760683 282.25267936 419.80432214 278.5 415.5 C274.00496923 410.344201 269.61376949 405.12489333 265.30859375 399.80859375 C262.58656003 396.49701634 259.79863676 393.24683884 257 390 C253.46394774 385.89764847 249.97136829 381.77198323 246.5625 377.5625 C242.96363971 373.12760683 239.25267936 368.80432214 235.5 364.5 C231.00496923 359.344201 226.61376949 354.12489333 222.30859375 348.80859375 C219.58656003 345.49701634 216.79863676 342.24683884 214 339 C210.46394774 334.89764847 206.97136829 330.77198323 203.5625 326.5625 C199.96363464 322.12760058 196.25256462 317.80442821 192.5 313.5 C187.21005465 307.42940844 182.06293398 301.26180723 177 295 C175.31507004 292.93538602 173.62615266 290.8740744 171.9375 288.8125 C170.625 287.20833333 169.3125 285.60416667 168 284 C165.13543747 285.28774617 163.20510789 286.58166763 161.109375 288.9140625 C160.57256104 289.50243896 160.03574707 290.09081543 159.48266602 290.69702148 C158.62499634 291.65137085 158.62499634 291.65137085 157.75 292.625 C151.87112582 299.05651504 145.81508749 305.26616543 139.59472656 311.36767578 C136.47716307 314.44445021 133.47524065 317.55499538 130.62109375 320.87890625 C125.74005362 326.54036321 120.35131488 331.69372959 115.02734375 336.93359375 C110.7695819 341.15034987 106.70234124 345.43089805 102.80029297 349.97705078 C99.31895871 353.88894875 95.54457592 357.51695872 91.8125 361.1875 C90.23328291 362.74105962 88.6563833 364.29697919 87.08203125 365.85546875 C86.04912964 366.87096802 86.04912964 366.87096802 84.99536133 367.90698242 C79.72378801 373.42974696 79.72378801 373.42974696 78.48101807 380.76435852 C78.46014885 382.49115593 78.46014885 382.49115593 78.43885803 384.25283813 C78.44640358 386.13342422 78.44640358 386.13342422 78.45410156 388.05200195 C78.44536253 389.39263608 78.43487559 390.73325979 78.42277527 392.0738678 C78.39493438 395.70577043 78.39151014 399.33733241 78.39249516 402.96932626 C78.38936437 406.76772949 78.36374277 410.56597967 78.34051514 414.36430359 C78.29996414 421.55357642 78.27961659 428.74275856 78.26654124 435.93212813 C78.2476993 445.64949133 78.1976204 455.36669041 78.14929771 465.08394337 C78.07400911 480.38928706 78.04043209 495.69443264 78 511 C52.26 511 26.52 511 0 511 C0 342.37 0 173.74 0 0 Z " fill="#FEFEFD" transform="translate(263,911)"/>
<path d="M0 0 C25.74 0 51.48 0 78 0 C78.33 87.45 78.66 174.9 79 265 C92.81508222 251.29477615 92.81508222 251.29477615 106 237 C108.31565005 234.64299906 110.63976958 232.31057574 113 230 C118.38642045 224.68894195 118.38642045 224.68894195 123.4375 219.0625 C127.50074465 214.25103638 132.05826003 209.91823345 136.52880859 205.49072266 C140.2097669 201.83169113 143.72158663 198.12268808 147.06640625 194.15234375 C150.50957087 190.31964939 154.22814967 186.7535319 157.88916016 183.13037109 C160.84893732 180.18951128 163.74711363 177.25602356 166.4375 174.0625 C170.50074465 169.25103638 175.05826003 164.91823345 179.52880859 160.49072266 C183.2097669 156.83169113 186.72158663 153.12268808 190.06640625 149.15234375 C193.50888068 145.32041767 197.22666402 141.75498084 200.88696289 138.13256836 C203.86817318 135.17043018 206.7857078 132.21283566 209.5 129 C212.78396954 125.11285239 216.38613844 121.57645583 220 118 C225.38538279 112.6879844 225.38538279 112.6879844 230.4375 107.0625 C234.50074465 102.25103638 239.05826003 97.91823345 243.52880859 93.49072266 C247.2097669 89.83169113 250.72158663 86.12268808 254.06640625 82.15234375 C257.50957087 78.31964939 261.22814967 74.7535319 264.88916016 71.13037109 C267.84893732 68.18951128 270.74711363 65.25602356 273.4375 62.0625 C277.50074465 57.25103638 282.05826003 52.91823345 286.52880859 48.49072266 C290.2097669 44.83169113 293.72158663 41.12268808 297.06640625 37.15234375 C300.50681007 33.32272253 304.22220686 29.75932736 307.88037109 26.13916016 C311.48954105 22.55314445 314.9246918 18.90158632 318.20703125 15.01171875 C321.10903401 11.75565901 324.23605165 8.72294092 327.3581543 5.67895508 C330.02031398 3.10046821 330.02031398 3.10046821 332 0 C367.31 0 402.62 0 439 0 C432.26175366 7.8612874 432.26175366 7.8612874 429.37890625 10.68359375 C428.75306641 11.30169922 428.12722656 11.91980469 427.48242188 12.55664062 C426.20641994 13.80668118 424.93037852 15.05668143 423.65429688 16.30664062 C420.51792605 19.40433062 417.49302099 22.53319026 414.62109375 25.87890625 C409.74005362 31.54036321 404.35131488 36.69372959 399.02734375 41.93359375 C395.39660828 45.52936227 391.82942643 49.12146956 388.5 53 C383.66867614 58.62812757 378.31002622 63.73436598 373.02734375 68.93359375 C369.39660828 72.52936227 365.82942643 76.12146956 362.5 80 C357.66867614 85.62812757 352.31002622 90.73436598 347.02734375 95.93359375 C343.39660828 99.52936227 339.82942643 103.12146956 336.5 107 C331.66867614 112.62812757 326.31002622 117.73436598 321.02734375 122.93359375 C316.7652762 127.1546141 312.69341441 131.43968391 308.78710938 135.99023438 C304.64943836 140.6434185 300.10991768 144.92548362 295.671875 149.2890625 C292.16907073 152.75612387 288.74236279 156.22804602 285.53125 159.96875 C280.68703971 165.60544631 275.32068928 170.72387138 270.02734375 175.93359375 C266.39660828 179.52936227 262.82942643 183.12146956 259.5 187 C254.66867614 192.62812757 249.31002622 197.73436598 244.02734375 202.93359375 C239.70522003 207.21409189 235.56107191 211.55827647 231.59912109 216.17382812 C229.20680139 218.90582071 226.65235002 221.45671713 224.0625 224 C223.56943359 224.48855469 223.07636719 224.97710938 222.56835938 225.48046875 C221.38126771 226.65603525 220.19099502 227.82838826 219 229 C224.29035647 236.40649906 230.26904366 243.16730764 236.2578125 250.0078125 C239.03570843 253.18433027 241.79931552 256.37318587 244.5625 259.5625 C245.10003906 260.18253906 245.63757812 260.80257813 246.19140625 261.44140625 C252.31721825 268.51192179 258.39824709 275.62065716 264.47949219 282.72949219 C270.13305047 289.33711172 275.80008455 295.93230081 281.5 302.5 C288.19445358 310.2136508 294.84022649 317.96834397 301.47949219 325.72949219 C307.13305047 332.33711172 312.80008455 338.93230081 318.5 345.5 C324.19856584 352.06614411 329.86404973 358.65992624 335.51611328 365.26611328 C338.00895521 368.17894042 340.50459434 371.08936922 343 374 C345.98964835 377.4871134 348.97875858 380.97467826 351.96484375 384.46484375 C357.12423716 390.49318763 362.29916091 396.50735906 367.5 402.5 C374.19445358 410.2136508 380.84022649 417.96834397 387.47949219 425.72949219 C393.13305047 432.33711172 398.80008455 438.93230081 404.5 445.5 C411.19445358 453.2136508 417.84022649 460.96834397 424.47949219 468.72949219 C425.96511521 470.46582021 427.45114635 472.20179738 428.9375 473.9375 C429.42927734 474.51177734 429.92105469 475.08605469 430.42773438 475.67773438 C434.12242917 479.98741088 437.84000127 484.27683709 441.5625 488.5625 C445.83186739 493.48350768 450.08856807 498.41490696 454.3125 503.375 C454.78695557 503.92873291 455.26141113 504.48246582 455.75024414 505.05297852 C459 508.88350546 459 508.88350546 459 510 C445.98713774 510.25523876 432.9748739 510.45050554 419.9600153 510.56993389 C413.91604564 510.62726479 407.87379234 510.70497814 401.83081055 510.82983398 C395.9951291 510.94964761 390.16109462 511.01518557 384.32427788 511.04364967 C382.10137441 511.06392407 379.87855791 511.10351917 377.65635872 511.16303062 C359.30511014 511.63479128 359.30511014 511.63479128 354.68988037 507.6072998 C352.4020239 504.83604483 350.69617633 502.15713611 349 499 C347.99538029 497.74507144 346.96384484 496.51005009 345.8828125 495.3203125 C345.42688721 494.79091064 344.97096191 494.26150879 344.5012207 493.71606445 C344.04706787 493.19101318 343.59291504 492.66596191 343.125 492.125 C342.09995076 490.93386016 341.07521858 489.7424474 340.05078125 488.55078125 C339.54369629 487.96119629 339.03661133 487.37161133 338.51416016 486.76416016 C332.7880908 480.09267077 327.10820726 473.38491685 321.5625 466.5625 C317.1485377 461.14143044 312.60217195 455.84158026 308.04296875 450.54296875 C303.78648075 445.59441284 299.57832994 440.6052146 295.36767578 435.61767578 C293.97540583 433.97091021 292.57994527 432.32689933 291.18359375 430.68359375 C286.93259941 425.67765348 282.70435708 420.6595962 278.5625 415.5625 C274.1485377 410.14143044 269.60217195 404.84158026 265.04296875 399.54296875 C260.78648075 394.59441284 256.57832994 389.6052146 252.36767578 384.61767578 C250.97540583 382.97091021 249.57994527 381.32689933 248.18359375 379.68359375 C243.93259941 374.67765348 239.70435708 369.6595962 235.5625 364.5625 C231.1485377 359.14143044 226.60217195 353.84158026 222.04296875 348.54296875 C217.78648075 343.59441284 213.57832994 338.6052146 209.36767578 333.61767578 C207.97540583 331.97091021 206.57994527 330.32689933 205.18359375 328.68359375 C200.93259941 323.67765348 196.70435708 318.6595962 192.5625 313.5625 C189.08927537 309.29255001 185.53200945 305.10502281 181.9375 300.9375 C177.15595157 295.39326919 172.51576602 289.76424251 168 284 C165.00425222 285.33220948 163.05344981 286.74517453 160.85546875 289.16796875 C160.26830078 289.80669922 159.68113281 290.44542969 159.07617188 291.10351562 C158.45291016 291.79123047 157.82964844 292.47894531 157.1875 293.1875 C151.3382489 299.54487953 145.36058095 305.72990947 139.18823242 311.77416992 C136.21687114 314.70326669 133.37504928 317.67759325 130.65625 320.84375 C125.76088306 326.51494519 120.36328709 331.68194652 115.02734375 336.93359375 C111.40180905 340.52421158 107.83918073 344.11044619 104.515625 347.984375 C100.35405421 352.83308887 95.80068156 357.26965355 91.25 361.75 C89.56535962 363.4090768 87.88297487 365.07044788 86.203125 366.734375 C85.46739258 367.45850586 84.73166016 368.18263672 83.97363281 368.92871094 C80.20724298 372.88146345 78.62707757 375.04958307 78.60127258 380.644104 C78.58246536 382.36883942 78.58246536 382.36883942 78.5632782 384.12841797 C78.56543083 386.01439697 78.56543083 386.01439697 78.56762695 387.93847656 C78.55860859 389.2789602 78.54828119 390.61943558 78.53674316 391.9598999 C78.50915533 395.59593247 78.4998863 399.23180864 78.49388909 402.86793232 C78.48451001 406.66899633 78.45830703 410.46994331 78.43388367 414.27093506 C78.39020208 421.46730321 78.36166535 428.66364867 78.33856028 435.86010909 C78.30646091 445.58562751 78.25098575 455.3110107 78.19681454 465.03642654 C78.11209144 480.35757753 78.0586172 495.6786754 78 511 C52.26 511 26.52 511 0 511 C0 342.37 0 173.74 0 0 Z " fill="#FEFEFD" transform="translate(1373,911)"/>
<path d="M0 0 C25.41 0 50.82 0 77 0 C77.029729 13.21780518 77.029729 13.21780518 77.06005859 26.70263672 C77.12496895 54.94925269 77.19950827 83.19583599 77.28005161 111.44241153 C77.29256936 115.83546816 77.30500231 120.22852502 77.31738281 124.62158203 C77.31984881 125.49610119 77.3223148 126.37062034 77.32485552 127.27164008 C77.36449817 141.40176297 77.39728295 155.53189378 77.42749982 169.66203962 C77.45869627 184.17828948 77.4973402 198.69450598 77.54279006 213.21071827 C77.57056703 222.15633087 77.5926464 231.10191927 77.60726251 240.04756321 C77.61786575 246.19536762 77.63575169 252.34312499 77.65916704 258.49089383 C77.67243486 262.02925241 77.6826817 265.56754555 77.68421364 269.10593033 C77.70007142 287.29436465 78.32762614 304.92970013 81.875 322.8125 C82.04717041 323.69212402 82.21934082 324.57174805 82.39672852 325.47802734 C84.64358219 336.60501077 88.02079356 346.80258521 93 357 C93.58267584 358.24969966 94.16466341 359.49972038 94.74609375 360.75 C101.22493379 374.44531209 109.5088746 386.05588991 120 397 C120.75667969 397.81984375 121.51335937 398.6396875 122.29296875 399.484375 C137.66941233 415.63842014 157.31180904 425.40701756 178 433 C179.12019531 433.4125 180.24039063 433.825 181.39453125 434.25 C184.5740686 435.31679104 187.7454406 436.1890753 191 437 C191.69528809 437.18046875 192.39057617 437.3609375 193.10693359 437.546875 C217.584547 443.67015712 245.63747681 443.47585018 270 437 C271.62485358 436.5983655 273.24985517 436.19732935 274.875 435.796875 C283.34228352 433.64047129 291.19054698 430.96397063 299 427 C300.26591679 426.39371931 301.5329287 425.78972215 302.80078125 425.1875 C316.67444454 418.52946529 328.5333085 410.21493676 340 400 C340.66773438 399.40574219 341.33546875 398.81148437 342.0234375 398.19921875 C356.83277269 384.18944861 367.28401321 365.04935758 374 346 C374.43828125 344.82566406 374.8765625 343.65132812 375.328125 342.44140625 C377.82217564 335.46257177 379.69220405 328.50084144 381.1875 321.25 C381.34234863 320.51370361 381.49719727 319.77740723 381.65673828 319.01879883 C385.11784298 301.15776617 385.30875825 283.23625433 385.31667423 265.10820019 C385.32042241 261.53860652 385.33560346 257.96905726 385.34928894 254.39949036 C385.37139826 248.2376383 385.38650885 242.07580239 385.39665604 235.91391945 C385.411337 227.00523925 385.43689913 218.0966154 385.46498732 209.18796857 C385.51028577 194.72892442 385.54697 180.26987206 385.578125 165.81079102 C385.60838039 151.77789881 385.64276237 137.74502656 385.68261719 123.7121582 C385.68507874 122.84494724 385.68754028 121.97773628 385.69007643 121.0842462 C385.70245238 116.73303925 385.71490865 112.38183254 385.72740483 108.03062594 C385.83071844 72.02044099 385.91839753 36.01024198 386 0 C411.41 0 436.82 0 463 0 C463.06628731 37.92008128 463.12162141 75.84010737 463.15319599 113.76023012 C463.15694756 118.24941458 463.16083058 122.73859892 463.16479492 127.2277832 C463.16558185 128.12140049 463.16636878 129.01501777 463.16717956 129.93571437 C463.18019027 144.35536481 463.20381988 158.77497893 463.23145839 173.19460791 C463.25963384 188.01935904 463.27620175 202.84409132 463.28226548 217.66886812 C463.28635692 226.79722889 463.299221 235.92548693 463.3237494 245.05381603 C463.33975696 251.33574603 463.3443669 257.61762387 463.34050413 263.89957272 C463.33860559 267.50974004 463.34125914 271.11972945 463.35761642 274.72986412 C463.54105676 317.3730902 456.6022488 358.34127899 438 397 C437.43345703 398.17876709 437.43345703 398.17876709 436.85546875 399.38134766 C410.3056481 453.73577289 360.90165681 489.36669912 305 509 C294.47182061 512.55007103 283.65785175 514.64903481 272.72802734 516.52978516 C270.9689697 516.8329841 269.21132182 517.14453803 267.45556641 517.46630859 C209.82745987 527.8837404 144.96472436 513.31264565 96.8125 480.01171875 C95.4203125 479.01591797 95.4203125 479.01591797 94 478 C93.05125 477.32582031 92.1025 476.65164063 91.125 475.95703125 C75.6852474 464.68519059 61.86854577 451.99392949 50 437 C49.2059375 436.02289062 48.411875 435.04578125 47.59375 434.0390625 C15.61146953 393.85879242 -0.25042544 340.92741949 -0.12025452 289.93363953 C-0.12110894 288.68521564 -0.12196337 287.43679175 -0.12284368 286.15053684 C-0.12419477 282.72520969 -0.12111265 279.29994104 -0.11606562 275.87462103 C-0.11171391 272.16588515 -0.11321087 268.45715081 -0.1139679 264.74841309 C-0.11449016 258.335986 -0.11137457 251.92356915 -0.10573006 245.51114464 C-0.09757456 236.2400578 -0.0949957 226.96897588 -0.09374207 217.69788585 C-0.09155789 202.65316133 -0.08491505 187.60844226 -0.07543945 172.5637207 C-0.06624889 157.9562991 -0.05917611 143.34887899 -0.05493164 128.74145508 C-0.05466892 127.83981082 -0.05440619 126.93816657 -0.05413551 126.00919976 C-0.05283039 121.48554443 -0.0515667 116.96188908 -0.05032361 112.43823373 C-0.03997076 74.95881765 -0.02154313 37.47941165 0 0 Z " fill="#FEFEFE" transform="translate(784,911)"/>
<path d="M0 0 C2.69860993 2.15587274 5.2622708 4.38873643 7.796875 6.734375 C8.56128906 7.41886719 9.32570313 8.10335938 10.11328125 8.80859375 C28.30170835 25.92153124 39.13016729 50.01212327 40.03515625 74.9140625 C40.60523193 104.36711254 31.72951012 129.91601922 11.31152344 151.60302734 C-6.14151121 169.63297886 -30.15717499 180.18255847 -55.26953125 180.9375 C-83.76907269 181.34515232 -108.736192 172.90014724 -129.68310547 153.22314453 C-140.72187667 142.41131884 -148.33443983 129.90982515 -154.078125 115.609375 C-154.36461914 114.90594971 -154.65111328 114.20252441 -154.94628906 113.4777832 C-163.60111256 90.8018332 -161.32035171 62.45144538 -151.953125 40.359375 C-146.83255123 29.05736944 -139.74925912 19.67588188 -131.203125 10.734375 C-130.60242187 10.05890625 -130.00171875 9.3834375 -129.3828125 8.6875 C-120.1354498 -1.32046829 -107.72403469 -8.21687109 -95.203125 -13.265625 C-94.4503125 -13.56984375 -93.6975 -13.8740625 -92.921875 -14.1875 C-62.03819193 -25.48078709 -26.52600916 -18.76229916 0 0 Z " fill="#FEFDFC" transform="translate(1274.203125,1572.265625)"/>
<path d="M0 0 C8.58 0 17.16 0 26 0 C34.24421514 8.87301121 34.24421514 8.87301121 36.2734375 12.93359375 C38.8238527 17.76581464 41.78089554 22.09452662 45 26.5 C45.99448945 27.90853378 46.98666894 29.31870127 47.9765625 30.73046875 C51.07319379 35.11753097 54.22161116 39.46614237 57.375 43.8125 C62.57647507 50.98479775 67.6728081 58.22557308 72.73828125 65.49438477 C78.72459374 74.0694411 84.85032968 82.54164946 91 91 C95.00039894 87.25007327 98.03014446 83.30468981 101.0625 78.75 C102.03421158 77.31446427 103.00690064 75.8795898 103.98046875 74.4453125 C104.47853027 73.70958008 104.9765918 72.97384766 105.48974609 72.21582031 C107.91398219 68.65901998 110.39056066 65.13991236 112.875 61.625 C113.3714502 60.92197754 113.86790039 60.21895508 114.37939453 59.49462891 C118.56239637 53.58692673 122.81677175 47.73207436 127.0715332 41.87597656 C130.43279151 37.22878042 133.71224504 32.53516742 136.92480469 27.78393555 C138.01274338 26.18365363 139.11232972 24.59122598 140.22363281 23.00708008 C143.36279587 18.52449326 146.16563614 14.05708974 148.61376953 9.15795898 C150.92001455 5.72077377 154.07314091 2.92685909 157 0 C165.58 0 174.16 0 183 0 C183 64.02 183 128.04 183 194 C173.76 194 164.52 194 155 194 C154.67 146.48 154.34 98.96 154 50 C147.07 59.9 147.07 59.9 140 70 C137.73125 73.238125 135.4625 76.47625 133.125 79.8125 C128.65420699 86.19894436 124.18424341 92.58602736 119.73120117 98.98486328 C118.33912398 100.97769431 116.93837056 102.96449567 115.52856445 104.94482422 C111.36780752 110.81166576 111.36780752 110.81166576 107.94921875 117.12109375 C106.221338 120.62221727 105.13013577 122.65953374 102 125 C95.16422219 127.21059006 87.81845744 127.30536105 81 125 C76.39477058 122.00115867 73.98860643 117.14882808 71.40332031 112.44384766 C68.73186765 107.79157885 65.56137213 103.46336498 62.5 99.0625 C61.20553819 97.15945035 59.91383131 95.25452363 58.625 93.34765625 C55.60294769 88.88462015 52.55877037 84.43794809 49.5 80 C42.63834555 70.01941171 35.82299377 60.00705753 29 50 C28.67 97.52 28.34 145.04 28 194 C18.76 194 9.52 194 0 194 C0 129.98 0 65.96 0 0 Z " fill="#FEFCFA" transform="translate(1361,1556)"/>
<path d="M0 0 C15.78574669 12.76824237 25.7565156 29.54032923 28.42626953 49.80419922 C30.22908523 69.31467129 24.10053789 87.18399921 12.11376953 102.61669922 C1.56497963 114.82922444 -14.23174857 124.95416353 -30.57373047 126.80419922 C-52.56747297 128.19937379 -72.31996424 124.593985 -89.40576172 109.85498047 C-102.58228056 97.39070589 -111.99808943 81.04619226 -112.83154297 62.60498047 C-113.30608699 41.71094819 -107.85686596 23.65644994 -93.39086914 8.1015625 C-69.04509405 -16.93551726 -28.30210621 -21.5053857 0 0 Z " fill="#E60112" transform="translate(1256.57373046875,1596.19580078125)"/>
<path d="M0 0 C9.9 0 19.8 0 30 0 C30 27.39 30 54.78 30 83 C62.34 83 94.68 83 128 83 C128 55.94 128 28.88 128 1 C137.57 1 147.14 1 157 1 C157 64.69 157 128.38 157 194 C147.43 194 137.86 194 128 194 C128 165.62 128 137.24 128 108 C95.66 108 63.32 108 30 108 C30 136.38 30 164.76 30 194 C20.1 194 10.2 194 0 194 C0 129.98 0 65.96 0 0 Z " fill="#FEFAF8" transform="translate(905,1556)"/>
<path d="M0 0 C39.6 0 79.2 0 120 0 C120 7.59 120 15.18 120 23 C89.97 23 59.94 23 29 23 C29 42.8 29 62.6 29 83 C55.4 83 81.8 83 109 83 C109 90.59 109 98.18 109 106 C82.6 106 56.2 106 29 106 C29 126.79 29 147.58 29 169 C59.03 169 89.06 169 120 169 C120 176.92 120 184.84 120 193 C80.4 193 40.8 193 0 193 C0 129.31 0 65.62 0 0 Z " fill="#FEFEFD" transform="translate(1604,1557)"/>
</svg>
